<svg id="svg" version="1.1" width="400" height="104.46428571428571" viewBox="0 0 400 104.46428571428571" xmlns="http://www.w3.org/2000/svg" xmlns:xlink="http://www.w3.org/1999/xlink" ><g id="svgg"><path id="path0" d="M41.441 4.114 C 41.375 4.181,40.751 4.290,40.055 4.356 C 39.359 4.423,38.709 4.557,38.611 4.655 C 38.513 4.753,38.088 4.833,37.665 4.833 C 37.243 4.833,36.751 4.943,36.574 5.078 C 36.396 5.213,36.011 5.325,35.718 5.328 C 35.426 5.331,35.140 5.408,35.083 5.500 C 35.027 5.592,34.779 5.667,34.532 5.668 C 34.285 5.668,33.869 5.781,33.606 5.918 C 33.343 6.055,33.017 6.167,32.882 6.167 C 32.746 6.167,32.436 6.271,32.192 6.400 C 31.949 6.528,31.412 6.722,31.000 6.831 C 30.587 6.940,30.025 7.130,29.750 7.253 C 29.475 7.376,29.081 7.525,28.875 7.583 C 28.669 7.641,28.500 7.759,28.500 7.845 C 28.500 7.930,28.317 8.000,28.093 8.000 C 27.869 8.000,27.641 8.073,27.586 8.162 C 27.531 8.251,27.136 8.479,26.707 8.668 C 26.279 8.858,25.888 9.072,25.839 9.144 C 25.790 9.215,25.225 9.526,24.583 9.833 C 23.942 10.141,23.379 10.435,23.333 10.488 C 23.287 10.540,22.969 10.726,22.625 10.901 C 22.281 11.076,22.000 11.282,22.000 11.360 C 22.000 11.437,21.899 11.500,21.776 11.500 C 21.653 11.500,21.334 11.690,21.068 11.923 C 20.801 12.156,20.321 12.508,20.000 12.706 C 19.679 12.904,19.379 13.108,19.333 13.159 C 19.287 13.211,18.928 13.462,18.535 13.716 C 18.142 13.971,17.290 14.683,16.642 15.298 C 15.994 15.913,15.332 16.467,15.172 16.528 C 15.011 16.589,14.713 16.851,14.511 17.111 C 14.308 17.371,13.529 18.223,12.779 19.005 C 10.968 20.894,10.445 21.498,9.952 22.270 C 9.724 22.626,9.304 23.137,9.019 23.406 C 8.734 23.675,8.500 23.958,8.500 24.033 C 8.500 24.167,7.193 26.168,6.998 26.333 C 6.943 26.379,6.719 26.717,6.500 27.083 C 6.281 27.450,6.059 27.788,6.009 27.833 C 5.820 28.004,5.333 29.035,5.333 29.264 C 5.333 29.394,5.269 29.500,5.190 29.500 C 5.110 29.500,4.806 30.006,4.513 30.625 C 4.220 31.244,3.913 31.863,3.830 32.000 C 3.627 32.336,2.995 33.650,2.787 34.167 C 2.695 34.396,2.527 34.808,2.414 35.083 C 2.058 35.946,1.798 36.733,1.712 37.210 C 1.666 37.464,1.562 37.712,1.481 37.762 C 1.400 37.812,1.331 38.055,1.328 38.302 C 1.325 38.548,1.213 38.896,1.078 39.074 C 0.943 39.251,0.833 39.630,0.833 39.915 C 0.833 40.200,0.756 40.511,0.661 40.606 C 0.128 41.138,-0.344 61.056,0.164 61.564 C 0.257 61.657,0.334 62.075,0.334 62.492 C 0.335 62.909,0.447 63.465,0.584 63.727 C 0.721 63.990,0.833 64.444,0.833 64.737 C 0.833 65.030,0.943 65.415,1.078 65.593 C 1.213 65.771,1.325 66.099,1.328 66.322 C 1.334 66.799,1.606 67.726,1.933 68.389 C 2.062 68.648,2.167 69.102,2.167 69.398 C 2.167 69.694,2.277 70.082,2.411 70.260 C 2.546 70.438,2.658 70.719,2.661 70.885 C 2.664 71.051,2.847 71.576,3.067 72.052 C 3.287 72.528,3.517 73.085,3.578 73.292 C 3.639 73.498,3.759 73.667,3.845 73.667 C 3.930 73.667,4.000 73.782,4.000 73.923 C 4.000 74.222,4.964 76.125,5.184 76.261 C 5.266 76.311,5.333 76.501,5.333 76.682 C 5.333 76.967,5.726 77.744,5.998 78.000 C 6.104 78.100,7.048 79.514,7.167 79.750 C 7.283 79.982,8.563 81.898,8.670 82.000 C 8.718 82.046,8.884 82.282,9.038 82.524 C 9.774 83.683,15.071 89.035,16.250 89.811 C 16.617 90.052,17.103 90.419,17.332 90.625 C 17.560 90.831,17.823 91.000,17.917 91.000 C 18.010 91.000,18.276 91.169,18.506 91.375 C 18.737 91.581,19.186 91.894,19.505 92.071 C 19.823 92.247,20.121 92.441,20.167 92.502 C 20.212 92.563,20.623 92.831,21.080 93.098 C 21.536 93.365,22.061 93.674,22.247 93.785 C 22.432 93.896,22.696 94.034,22.833 94.092 C 23.405 94.331,24.948 95.048,25.359 95.266 C 25.602 95.395,25.959 95.500,26.151 95.500 C 26.343 95.500,26.500 95.561,26.500 95.635 C 26.500 95.787,27.515 96.256,28.210 96.425 C 28.463 96.487,28.711 96.604,28.761 96.685 C 28.812 96.767,29.030 96.833,29.246 96.833 C 29.462 96.833,29.666 96.913,29.698 97.011 C 29.731 97.108,30.093 97.227,30.504 97.274 C 30.914 97.320,31.400 97.422,31.583 97.499 C 32.153 97.737,33.383 98.034,34.167 98.122 C 34.579 98.169,35.065 98.310,35.245 98.437 C 35.426 98.563,35.933 98.667,36.373 98.667 C 36.812 98.667,37.301 98.738,37.461 98.826 C 38.908 99.624,53.936 99.633,55.750 98.837 C 55.933 98.757,56.456 98.655,56.911 98.612 C 57.367 98.568,57.767 98.450,57.800 98.350 C 57.834 98.249,58.059 98.167,58.300 98.167 C 58.689 98.167,59.601 97.898,60.583 97.494 C 60.767 97.419,61.198 97.311,61.542 97.254 C 61.885 97.198,62.167 97.080,62.167 96.992 C 62.167 96.905,62.345 96.833,62.563 96.833 C 62.781 96.833,63.053 96.721,63.167 96.583 C 63.281 96.446,63.467 96.333,63.580 96.333 C 63.824 96.333,65.504 95.454,66.330 94.894 C 66.650 94.677,67.006 94.500,67.122 94.500 C 67.238 94.500,67.333 94.425,67.333 94.333 C 67.333 94.242,67.440 94.167,67.571 94.167 C 67.702 94.167,67.909 94.070,68.030 93.952 C 68.151 93.835,68.624 93.478,69.082 93.161 C 69.540 92.843,70.277 92.246,70.721 91.833 C 71.165 91.421,71.653 91.016,71.806 90.935 C 72.111 90.771,72.699 90.168,74.333 88.340 C 74.929 87.673,75.494 87.043,75.590 86.939 C 75.685 86.835,75.923 86.487,76.120 86.167 C 76.317 85.846,76.614 85.432,76.781 85.246 C 77.376 84.582,78.167 83.357,78.167 83.098 C 78.167 82.952,78.237 82.833,78.322 82.833 C 78.408 82.833,78.530 82.665,78.595 82.458 C 78.659 82.252,78.758 82.046,78.814 82.000 C 78.871 81.954,79.283 81.167,79.732 80.250 C 80.180 79.333,80.611 78.453,80.690 78.294 C 80.769 78.135,80.833 77.923,80.833 77.824 C 80.833 77.724,80.946 77.530,81.083 77.393 C 81.221 77.255,81.336 76.942,81.339 76.696 C 81.342 76.451,81.454 76.104,81.589 75.926 C 81.723 75.749,81.833 75.442,81.833 75.246 C 81.833 75.050,81.882 74.840,81.941 74.781 C 82.154 74.568,82.656 72.906,82.661 72.395 C 82.664 72.109,82.779 71.781,82.917 71.667 C 83.295 71.352,83.250 69.807,82.848 69.310 C 81.713 67.908,79.000 70.053,79.000 72.353 C 79.000 72.539,78.888 72.803,78.750 72.940 C 78.612 73.078,78.500 73.373,78.500 73.595 C 78.500 73.818,78.431 74.000,78.347 74.000 C 78.262 74.000,78.144 74.224,78.084 74.498 C 78.024 74.772,77.905 75.039,77.821 75.091 C 77.736 75.144,77.667 75.323,77.667 75.489 C 77.667 75.656,77.554 75.886,77.417 76.000 C 77.279 76.114,77.167 76.328,77.167 76.476 C 77.167 76.784,76.354 78.461,76.042 78.799 C 75.927 78.923,75.833 79.131,75.833 79.262 C 75.833 79.393,75.763 79.500,75.678 79.500 C 75.592 79.500,75.469 79.668,75.404 79.873 C 75.339 80.078,75.063 80.512,74.790 80.836 C 74.517 81.161,74.129 81.735,73.928 82.111 C 73.727 82.488,73.042 83.372,72.406 84.077 C 71.770 84.781,71.180 85.483,71.094 85.635 C 70.891 85.998,70.647 86.236,69.255 87.425 C 68.616 87.970,67.941 88.575,67.755 88.769 C 67.569 88.963,67.023 89.363,66.542 89.658 C 66.060 89.954,65.666 90.245,65.665 90.306 C 65.664 90.367,65.364 90.560,64.998 90.735 C 64.632 90.910,64.333 91.108,64.333 91.175 C 64.333 91.242,64.146 91.344,63.917 91.402 C 63.688 91.459,63.500 91.580,63.500 91.670 C 63.500 91.760,63.405 91.833,63.289 91.833 C 63.172 91.833,62.801 92.021,62.464 92.250 C 62.127 92.479,61.702 92.667,61.521 92.667 C 61.339 92.667,61.078 92.779,60.940 92.917 C 60.803 93.054,60.572 93.167,60.426 93.167 C 60.160 93.167,60.043 93.213,59.028 93.722 C 58.723 93.875,58.297 94.000,58.082 94.000 C 57.867 94.000,57.578 94.112,57.440 94.250 C 57.303 94.387,56.965 94.500,56.688 94.500 C 56.412 94.500,56.147 94.564,56.098 94.643 C 56.049 94.722,55.540 94.829,54.967 94.881 C 54.394 94.933,53.898 95.056,53.865 95.154 C 53.785 95.394,46.636 95.403,46.397 95.163 C 46.303 95.070,45.723 94.946,45.108 94.889 C 44.493 94.831,43.950 94.720,43.901 94.642 C 43.853 94.564,43.513 94.500,43.145 94.500 C 42.773 94.500,42.365 94.389,42.226 94.250 C 42.089 94.112,41.757 94.000,41.488 94.000 C 41.220 94.000,41.000 93.941,41.000 93.868 C 41.000 93.795,40.569 93.594,40.042 93.421 C 39.515 93.248,38.965 93.008,38.820 92.887 C 38.675 92.766,38.450 92.666,38.320 92.666 C 38.004 92.665,36.475 91.881,35.300 91.118 C 34.777 90.778,34.277 90.500,34.189 90.500 C 34.100 90.500,34.003 90.443,33.972 90.374 C 33.897 90.203,32.565 89.167,32.421 89.167 C 32.206 89.167,27.714 84.586,27.272 83.917 C 26.854 83.285,26.290 82.510,25.466 81.440 C 25.264 81.177,25.014 80.802,24.909 80.606 C 23.506 77.983,23.085 77.241,22.970 77.194 C 22.895 77.164,22.833 77.030,22.833 76.897 C 22.833 76.764,22.646 76.286,22.417 75.833 C 22.188 75.381,22.000 74.901,22.000 74.767 C 22.000 74.633,21.898 74.422,21.774 74.298 C 21.650 74.174,21.509 73.850,21.461 73.578 C 21.361 73.008,20.574 70.723,20.331 70.294 C 20.241 70.135,20.167 69.815,20.167 69.583 C 20.167 69.352,20.097 69.032,20.012 68.873 C 19.742 68.368,19.333 66.872,19.332 66.385 C 19.332 66.128,19.219 65.702,19.082 65.439 C 18.945 65.177,18.833 64.551,18.833 64.048 C 18.833 63.545,18.725 62.897,18.592 62.609 C 18.459 62.320,18.313 61.558,18.266 60.917 C 17.945 56.487,17.818 55.251,17.669 55.102 C 17.438 54.871,17.439 45.627,17.670 45.396 C 17.822 45.245,17.952 44.245,18.275 40.754 C 18.325 40.207,18.472 39.609,18.600 39.426 C 18.728 39.242,18.836 38.715,18.839 38.255 C 18.842 37.784,18.951 37.275,19.089 37.093 C 19.223 36.915,19.333 36.621,19.333 36.439 C 19.333 36.084,20.033 33.922,20.427 33.058 C 20.559 32.769,20.667 32.450,20.667 32.348 C 20.667 32.246,20.734 32.032,20.816 31.873 C 20.898 31.714,21.098 31.246,21.259 30.833 C 21.683 29.748,22.316 28.303,22.537 27.917 C 22.641 27.733,22.961 27.128,23.248 26.571 C 23.534 26.015,23.914 25.339,24.093 25.071 C 24.625 24.267,24.826 23.934,24.989 23.583 C 25.074 23.400,25.336 23.032,25.572 22.766 C 25.807 22.499,26.004 22.199,26.008 22.099 C 26.013 21.999,26.312 21.617,26.674 21.250 C 27.035 20.883,27.331 20.490,27.332 20.375 C 27.333 20.260,27.408 20.167,27.500 20.167 C 27.592 20.167,27.667 20.092,27.667 20.001 C 27.667 19.733,31.516 15.774,32.530 15.000 C 33.651 14.144,34.758 13.232,34.806 13.125 C 34.836 13.056,34.931 13.000,35.016 13.000 C 35.101 13.000,35.610 12.700,36.147 12.333 C 36.684 11.967,37.241 11.667,37.385 11.667 C 37.529 11.667,37.690 11.598,37.742 11.513 C 37.856 11.329,39.982 10.308,41.583 9.669 C 41.858 9.559,42.296 9.364,42.555 9.235 C 42.815 9.106,43.278 9.000,43.585 9.000 C 43.892 9.000,44.247 8.895,44.375 8.768 C 44.984 8.159,53.842 8.158,54.347 8.766 C 54.454 8.895,54.832 9.000,55.187 9.000 C 55.543 9.000,55.833 9.065,55.833 9.144 C 55.833 9.223,56.340 9.457,56.958 9.663 C 57.577 9.869,58.155 10.104,58.242 10.185 C 58.329 10.267,58.529 10.333,58.686 10.333 C 58.843 10.333,58.997 10.397,59.028 10.475 C 59.086 10.625,60.083 11.227,61.333 11.866 C 61.746 12.077,62.346 12.488,62.667 12.780 C 62.987 13.071,63.550 13.528,63.917 13.794 C 64.779 14.421,67.853 17.563,68.406 18.382 C 68.641 18.729,69.020 19.216,69.250 19.464 C 69.479 19.711,69.667 19.980,69.667 20.061 C 69.667 20.143,69.925 20.496,70.242 20.846 C 70.558 21.196,70.979 21.861,71.179 22.324 C 71.378 22.788,71.607 23.167,71.687 23.167 C 71.768 23.167,71.833 23.247,71.833 23.344 C 71.833 23.442,72.012 23.761,72.231 24.053 C 72.449 24.345,72.679 24.752,72.742 24.958 C 72.805 25.165,72.926 25.333,73.011 25.333 C 73.097 25.333,73.167 25.474,73.167 25.646 C 73.167 25.818,73.279 26.053,73.417 26.167 C 73.554 26.281,73.667 26.450,73.667 26.543 C 73.667 26.636,73.955 27.321,74.307 28.064 C 74.659 28.808,75.194 29.979,75.497 30.667 C 75.799 31.354,76.111 31.988,76.190 32.075 C 76.269 32.162,76.333 32.391,76.333 32.583 C 76.333 32.776,76.393 33.005,76.466 33.092 C 76.539 33.179,76.733 33.700,76.897 34.250 C 77.181 35.199,77.450 35.896,77.894 36.833 C 78.003 37.063,78.258 37.324,78.462 37.415 C 78.666 37.505,78.833 37.636,78.833 37.706 C 78.833 37.776,79.021 37.833,79.250 37.833 C 79.479 37.833,79.667 37.758,79.667 37.667 C 79.667 37.575,79.777 37.500,79.911 37.500 C 80.518 37.500,80.774 31.316,80.196 30.618 C 80.100 30.502,80.003 29.047,79.972 27.233 C 79.934 25.068,79.852 23.973,79.716 23.809 C 79.582 23.647,79.489 22.543,79.438 20.492 C 79.306 15.174,79.043 10.503,78.865 10.288 C 78.771 10.174,78.669 9.019,78.638 7.720 C 78.586 5.488,78.561 5.336,78.179 4.930 C 77.443 4.147,75.833 4.602,75.833 5.593 C 75.833 7.266,74.124 8.498,72.131 8.262 C 71.647 8.204,70.806 8.115,70.264 8.062 C 69.721 8.010,69.172 7.862,69.043 7.734 C 68.915 7.605,68.598 7.500,68.340 7.500 C 68.083 7.500,67.657 7.388,67.394 7.251 C 67.131 7.114,66.677 7.002,66.385 7.001 C 66.092 7.000,65.807 6.925,65.750 6.833 C 65.693 6.742,65.445 6.664,65.198 6.661 C 64.952 6.658,64.604 6.546,64.426 6.411 C 64.249 6.277,63.976 6.167,63.821 6.167 C 63.665 6.167,63.323 6.055,63.061 5.918 C 62.798 5.781,62.419 5.668,62.218 5.668 C 62.017 5.667,61.807 5.592,61.750 5.500 C 61.693 5.408,61.323 5.333,60.927 5.333 C 60.491 5.333,60.126 5.235,60.000 5.083 C 59.864 4.920,59.493 4.833,58.930 4.833 C 58.455 4.833,57.985 4.752,57.885 4.652 C 57.446 4.212,41.853 3.703,41.441 4.114 M324.167 7.207 C 322.746 7.285,318.321 7.383,314.333 7.426 C 306.394 7.511,306.663 7.474,306.669 8.490 C 306.673 9.143,306.900 9.369,307.691 9.510 C 308.090 9.581,308.867 9.764,309.417 9.916 C 309.967 10.069,310.679 10.235,311.000 10.285 C 311.321 10.336,311.731 10.480,311.912 10.605 C 312.093 10.731,312.407 10.833,312.611 10.833 C 312.814 10.833,313.027 10.908,313.083 11.000 C 313.140 11.092,313.323 11.167,313.489 11.167 C 313.656 11.167,313.886 11.279,314.000 11.417 C 314.114 11.554,314.330 11.667,314.479 11.666 C 314.804 11.666,316.778 13.727,316.935 14.230 C 316.995 14.424,317.091 14.621,317.147 14.667 C 317.428 14.895,318.167 16.878,318.167 17.403 C 318.167 17.566,318.280 17.938,318.418 18.229 C 318.636 18.688,318.663 20.468,318.626 31.802 L 318.583 44.847 318.026 44.436 C 317.720 44.210,317.179 43.757,316.825 43.429 C 316.471 43.101,316.122 42.833,316.049 42.833 C 315.976 42.832,315.579 42.608,315.167 42.333 C 314.754 42.059,314.285 41.834,314.125 41.834 C 313.965 41.834,313.833 41.758,313.833 41.667 C 313.833 41.575,313.751 41.500,313.650 41.500 C 313.452 41.500,312.516 41.112,311.808 40.735 C 311.564 40.606,311.223 40.500,311.049 40.500 C 310.876 40.500,310.659 40.426,310.568 40.335 C 310.371 40.137,309.071 39.833,307.918 39.715 C 307.460 39.668,306.937 39.525,306.756 39.398 C 306.523 39.234,305.884 39.167,304.580 39.167 C 303.491 39.167,302.660 39.094,302.555 38.988 C 302.440 38.873,301.796 38.842,300.730 38.901 C 296.366 39.143,295.031 39.265,294.816 39.442 C 294.688 39.547,294.171 39.671,293.667 39.716 C 292.479 39.822,291.142 40.125,290.932 40.335 C 290.841 40.426,290.562 40.500,290.312 40.500 C 290.062 40.500,289.745 40.612,289.607 40.750 C 289.470 40.887,289.243 41.000,289.104 41.000 C 288.965 41.000,288.498 41.188,288.067 41.417 C 287.636 41.646,287.164 41.836,287.017 41.840 C 286.870 41.843,286.337 42.105,285.833 42.420 C 285.329 42.736,284.742 43.071,284.529 43.164 C 284.316 43.258,284.048 43.428,283.933 43.542 C 283.819 43.657,283.018 44.267,282.154 44.899 C 281.290 45.530,280.256 46.441,279.855 46.923 C 279.455 47.405,278.686 48.274,278.147 48.855 C 277.608 49.436,277.167 49.980,277.167 50.065 C 277.167 50.149,276.979 50.464,276.750 50.765 C 276.521 51.065,276.333 51.357,276.333 51.413 C 276.333 51.468,276.179 51.680,275.989 51.882 C 275.800 52.084,275.370 52.813,275.033 53.500 C 274.696 54.188,274.326 54.849,274.210 54.970 C 274.095 55.091,274.000 55.299,274.000 55.431 C 274.000 55.563,273.933 55.801,273.850 55.961 C 273.768 56.120,273.571 56.587,273.413 57.000 C 273.254 57.413,273.027 57.975,272.908 58.250 C 272.789 58.525,272.568 59.200,272.418 59.750 C 272.267 60.300,272.074 60.922,271.989 61.133 C 271.903 61.343,271.833 61.760,271.833 62.058 C 271.833 62.356,271.746 62.687,271.640 62.793 C 271.534 62.900,271.386 63.533,271.313 64.202 C 271.239 64.870,271.108 65.867,271.020 66.417 C 270.812 67.728,270.812 73.495,271.021 74.667 C 271.110 75.171,271.238 76.050,271.304 76.620 C 271.369 77.190,271.516 77.749,271.628 77.862 C 271.741 77.974,271.833 78.347,271.833 78.690 C 271.833 79.033,271.902 79.356,271.985 79.408 C 272.069 79.459,272.188 79.801,272.250 80.167 C 272.312 80.532,272.431 80.874,272.515 80.926 C 272.598 80.977,272.667 81.160,272.667 81.331 C 272.667 81.503,272.779 81.755,272.917 81.893 C 273.054 82.030,273.167 82.282,273.167 82.451 C 273.167 82.620,273.266 82.907,273.387 83.088 C 273.508 83.269,273.707 83.679,273.830 84.000 C 274.086 84.673,275.551 87.141,275.968 87.604 C 276.123 87.776,276.449 88.217,276.692 88.583 C 277.385 89.628,277.653 89.943,279.212 91.540 C 280.620 92.983,280.964 93.278,282.417 94.287 C 282.783 94.542,283.270 94.919,283.498 95.125 C 283.727 95.331,283.982 95.500,284.066 95.500 C 284.150 95.500,284.464 95.688,284.765 95.917 C 285.065 96.146,285.382 96.333,285.468 96.333 C 285.555 96.333,285.719 96.446,285.833 96.583 C 285.947 96.721,286.182 96.833,286.354 96.833 C 286.526 96.833,286.667 96.901,286.667 96.984 C 286.667 97.068,287.098 97.267,287.625 97.428 C 288.579 97.719,288.943 97.870,289.942 98.392 C 290.232 98.543,290.650 98.667,290.873 98.667 C 291.096 98.667,291.334 98.723,291.403 98.792 C 291.611 98.999,293.187 99.365,294.250 99.452 C 294.800 99.497,295.304 99.620,295.369 99.725 C 295.542 100.004,306.128 99.995,306.683 99.715 C 306.903 99.604,307.571 99.482,308.167 99.444 C 309.354 99.368,310.826 99.050,311.075 98.816 C 311.162 98.734,311.438 98.667,311.688 98.667 C 311.938 98.667,312.255 98.554,312.393 98.417 C 312.530 98.279,312.753 98.167,312.888 98.167 C 313.348 98.167,315.561 96.909,316.332 96.210 C 316.879 95.713,317.333 96.078,317.333 97.013 C 317.333 97.167,317.446 97.386,317.583 97.500 C 317.721 97.614,317.833 97.812,317.833 97.940 C 317.833 98.236,318.511 99.315,319.089 99.938 L 319.532 100.417 321.993 100.473 C 323.350 100.504,325.080 100.440,325.852 100.331 C 326.621 100.221,328.087 100.079,329.110 100.015 C 330.134 99.951,331.071 99.816,331.194 99.715 C 331.316 99.614,332.204 99.491,333.167 99.442 C 334.129 99.392,335.817 99.239,336.917 99.101 C 341.185 98.565,341.159 98.574,341.164 97.637 C 341.168 96.993,340.895 96.799,339.235 96.269 C 337.618 95.753,336.712 95.366,336.366 95.042 C 336.243 94.927,336.070 94.833,335.981 94.833 C 335.733 94.833,332.667 91.814,332.667 91.571 C 332.667 91.453,332.568 91.258,332.446 91.137 C 332.325 91.016,332.090 90.560,331.924 90.125 C 331.757 89.690,331.557 89.333,331.477 89.333 C 331.398 89.333,331.333 89.163,331.333 88.954 C 331.333 88.745,331.231 88.426,331.106 88.245 C 330.862 87.892,330.749 87.406,330.486 85.584 C 330.394 84.943,330.246 84.346,330.159 84.259 C 330.059 84.159,330.000 69.966,330.000 46.050 L 330.000 8.000 329.660 7.660 C 328.952 6.952,328.910 6.948,324.167 7.207 M101.833 38.780 C 101.604 38.825,101.345 38.930,101.258 39.014 C 101.171 39.098,100.569 39.167,99.920 39.167 C 99.184 39.167,98.617 39.254,98.411 39.398 C 98.229 39.525,97.706 39.667,97.249 39.713 C 96.102 39.829,94.833 40.162,94.833 40.347 C 94.833 40.431,94.676 40.500,94.484 40.500 C 94.292 40.500,93.936 40.604,93.692 40.731 C 93.449 40.858,92.969 41.100,92.625 41.269 C 92.281 41.438,92.000 41.634,92.000 41.705 C 92.000 41.775,91.855 41.833,91.679 41.833 C 91.502 41.833,91.258 41.927,91.137 42.042 C 91.016 42.157,90.629 42.401,90.277 42.584 C 89.687 42.890,87.397 44.893,86.592 45.805 C 85.432 47.119,84.356 50.518,84.978 50.903 C 85.057 50.952,85.165 51.256,85.217 51.580 C 85.401 52.714,87.340 54.726,88.450 54.934 C 88.754 54.991,89.045 55.104,89.095 55.186 C 89.391 55.665,94.167 55.140,94.167 54.628 C 94.167 54.557,94.265 54.500,94.385 54.500 C 95.206 54.500,97.833 50.875,97.833 49.742 C 97.833 49.624,97.939 49.315,98.069 49.055 C 98.716 47.756,99.167 46.724,99.167 46.539 C 99.167 46.426,99.225 46.333,99.295 46.333 C 99.366 46.333,99.567 46.067,99.742 45.743 C 100.156 44.975,101.486 43.771,102.333 43.397 C 102.700 43.235,103.000 43.042,103.000 42.968 C 103.000 42.894,103.248 42.833,103.550 42.833 C 103.852 42.833,104.179 42.754,104.275 42.658 C 104.678 42.255,110.470 42.646,110.848 43.101 C 110.954 43.229,111.146 43.333,111.274 43.333 C 111.908 43.333,113.772 44.984,114.201 45.926 C 114.303 46.150,114.450 46.333,114.527 46.333 C 114.604 46.333,114.667 46.440,114.667 46.571 C 114.667 46.702,114.760 46.909,114.875 47.030 C 115.141 47.311,115.441 48.209,115.589 49.167 C 115.652 49.579,115.779 50.009,115.869 50.121 C 116.107 50.416,116.103 58.425,115.865 58.712 C 115.764 58.834,115.631 59.250,115.569 59.637 C 115.507 60.024,115.391 60.381,115.311 60.430 C 115.232 60.479,115.167 60.665,115.167 60.843 C 115.167 61.021,115.097 61.167,115.011 61.167 C 114.926 61.167,114.806 61.325,114.744 61.518 C 114.683 61.711,114.509 62.021,114.358 62.206 C 113.331 63.467,112.738 64.100,112.278 64.426 C 110.980 65.347,109.299 66.333,109.027 66.333 C 108.864 66.333,108.585 66.443,108.407 66.578 C 108.229 66.713,107.930 66.825,107.742 66.828 C 107.554 66.831,107.321 66.913,107.224 67.010 C 107.127 67.107,106.622 67.230,106.102 67.283 C 105.582 67.337,105.117 67.445,105.069 67.524 C 105.020 67.602,104.329 67.668,103.532 67.671 C 102.735 67.673,101.783 67.758,101.417 67.860 C 101.050 67.962,100.000 68.102,99.083 68.170 C 97.385 68.298,95.849 68.560,95.250 68.826 C 95.067 68.907,94.617 69.015,94.251 69.066 C 93.885 69.117,93.560 69.236,93.529 69.329 C 93.498 69.423,93.284 69.500,93.053 69.500 C 92.823 69.500,92.398 69.623,92.109 69.774 C 91.165 70.266,91.007 70.333,90.794 70.339 C 89.205 70.382,83.000 75.944,83.000 77.326 C 83.000 77.401,82.888 77.677,82.751 77.939 C 82.614 78.202,82.502 78.533,82.501 78.675 C 82.500 78.817,82.433 79.005,82.351 79.092 C 81.849 79.625,81.452 84.584,81.812 85.833 C 82.399 87.870,82.538 88.318,82.771 88.917 C 83.288 90.243,83.593 90.777,84.728 92.333 C 85.902 93.945,86.647 94.756,87.636 95.501 C 87.939 95.729,88.427 96.124,88.719 96.377 C 89.296 96.878,91.837 98.167,92.247 98.167 C 92.386 98.167,92.500 98.233,92.500 98.314 C 92.500 98.477,93.734 98.910,94.710 99.089 C 95.055 99.153,95.378 99.271,95.428 99.352 C 95.479 99.434,96.063 99.500,96.727 99.500 C 97.464 99.500,98.014 99.580,98.140 99.707 C 98.412 99.978,101.527 99.990,101.852 99.721 C 101.979 99.615,102.646 99.495,103.333 99.453 C 104.640 99.374,106.046 99.099,106.539 98.827 C 106.699 98.739,107.003 98.667,107.216 98.667 C 107.429 98.667,107.749 98.557,107.926 98.422 C 108.104 98.287,108.379 98.175,108.536 98.172 C 108.693 98.169,109.106 98.044,109.453 97.894 C 110.375 97.494,110.706 97.367,111.125 97.249 C 111.331 97.191,111.500 97.074,111.500 96.989 C 111.500 96.903,111.601 96.833,111.725 96.833 C 112.030 96.833,114.558 95.483,114.833 95.174 C 114.879 95.122,115.215 94.931,115.579 94.748 C 115.943 94.566,116.393 94.278,116.579 94.109 C 117.387 93.373,117.493 93.415,119.299 95.182 C 120.228 96.090,121.097 96.833,121.230 96.833 C 121.363 96.833,121.497 96.895,121.528 96.970 C 121.558 97.045,122.108 97.350,122.750 97.649 C 123.392 97.947,124.116 98.298,124.359 98.429 C 124.602 98.560,124.944 98.667,125.117 98.667 C 125.291 98.667,125.505 98.734,125.592 98.816 C 127.228 100.357,136.582 99.800,139.500 97.988 C 139.637 97.902,139.931 97.755,140.153 97.660 C 141.390 97.130,143.333 94.217,143.333 92.895 C 143.333 90.884,140.770 90.649,139.838 92.574 C 139.638 92.987,139.236 93.516,138.945 93.749 C 138.655 93.981,138.326 94.246,138.215 94.336 C 138.105 94.426,137.903 94.500,137.767 94.500 C 137.631 94.500,137.473 94.575,137.417 94.667 C 137.360 94.758,136.723 94.833,136.000 94.833 C 135.277 94.833,134.640 94.758,134.583 94.667 C 134.527 94.575,134.365 94.500,134.225 94.500 C 133.352 94.500,130.665 91.966,130.395 90.888 C 130.341 90.675,130.230 90.500,130.149 90.500 C 130.067 90.500,130.000 90.367,130.000 90.204 C 130.000 90.041,129.896 89.759,129.769 89.577 C 129.335 88.958,129.294 87.405,129.189 67.667 C 129.077 46.754,129.067 46.500,128.326 46.500 C 128.258 46.500,128.160 46.331,128.108 46.125 C 127.923 45.394,124.557 42.333,123.939 42.333 C 123.811 42.333,123.614 42.221,123.500 42.083 C 123.386 41.946,123.152 41.833,122.980 41.833 C 122.807 41.833,122.667 41.764,122.667 41.680 C 122.667 41.596,122.443 41.477,122.169 41.417 C 121.895 41.357,121.628 41.238,121.575 41.154 C 121.523 41.069,121.269 41.000,121.011 41.000 C 120.752 41.000,120.447 40.887,120.333 40.750 C 120.219 40.612,119.925 40.500,119.680 40.500 C 119.434 40.500,119.159 40.426,119.068 40.335 C 118.871 40.137,117.571 39.833,116.418 39.715 C 115.960 39.668,115.437 39.525,115.256 39.398 C 115.050 39.254,114.482 39.167,113.746 39.167 C 113.025 39.167,112.486 39.086,112.359 38.958 C 112.149 38.749,102.806 38.591,101.833 38.780 M178.000 38.783 C 177.679 38.824,177.345 38.927,177.258 39.012 C 177.171 39.097,176.679 39.167,176.165 39.167 C 175.601 39.167,175.102 39.264,174.907 39.411 C 174.729 39.546,174.269 39.658,173.885 39.661 C 173.501 39.664,173.144 39.735,173.092 39.819 C 173.041 39.903,172.699 40.022,172.332 40.083 C 171.966 40.145,171.667 40.264,171.667 40.348 C 171.667 40.432,171.509 40.500,171.317 40.500 C 171.125 40.500,170.769 40.606,170.526 40.735 C 170.282 40.864,169.783 41.093,169.417 41.243 C 169.050 41.393,168.620 41.588,168.461 41.675 C 168.301 41.762,168.063 41.833,167.931 41.833 C 167.799 41.833,167.591 41.931,167.470 42.050 C 167.349 42.170,166.904 42.434,166.480 42.638 C 166.057 42.842,165.577 43.157,165.413 43.338 C 165.249 43.519,165.044 43.667,164.956 43.667 C 164.869 43.667,164.512 43.893,164.163 44.170 L 163.528 44.673 163.418 44.172 C 163.357 43.896,163.238 43.628,163.154 43.575 C 163.069 43.523,163.000 43.107,163.000 42.651 C 163.000 41.761,162.468 40.489,161.868 39.948 C 161.385 39.511,154.936 39.831,154.452 40.315 C 154.347 40.419,153.692 40.500,152.950 40.500 C 152.152 40.500,151.427 40.595,151.109 40.742 C 150.820 40.875,149.983 41.021,149.250 41.065 C 146.709 41.221,144.808 41.459,144.621 41.646 C 144.518 41.749,144.191 41.833,143.895 41.833 C 142.001 41.833,142.760 43.928,144.770 44.246 C 147.399 44.662,149.500 46.208,149.500 47.726 C 149.500 47.946,149.612 48.219,149.750 48.333 C 149.970 48.516,150.000 50.998,150.000 68.829 L 150.000 89.117 149.605 89.850 C 149.388 90.253,149.069 90.844,148.897 91.163 C 148.634 91.648,146.731 93.659,145.969 94.255 C 144.991 95.021,144.428 95.386,143.417 95.911 C 141.473 96.919,141.056 97.556,141.833 98.333 C 142.249 98.749,172.336 98.871,172.876 98.458 C 173.846 97.717,172.377 95.833,170.828 95.833 C 170.648 95.833,170.500 95.760,170.500 95.670 C 170.500 95.580,170.294 95.456,170.042 95.394 C 169.790 95.332,169.546 95.237,169.500 95.183 C 169.374 95.033,168.327 94.500,168.159 94.500 C 168.078 94.500,167.799 94.294,167.539 94.042 C 167.279 93.790,166.733 93.372,166.325 93.113 C 165.501 92.589,164.670 91.616,163.919 90.295 L 163.422 89.419 163.476 72.918 C 163.509 62.763,163.591 56.342,163.689 56.224 C 163.777 56.118,163.924 55.630,164.016 55.140 C 164.108 54.651,164.227 54.025,164.281 53.750 C 164.335 53.475,164.481 53.102,164.606 52.921 C 164.731 52.740,164.833 52.470,164.833 52.321 C 164.833 51.994,165.952 49.818,166.240 49.583 C 166.353 49.492,166.645 49.099,166.890 48.711 C 167.462 47.802,168.529 46.731,169.583 46.006 C 170.042 45.691,170.454 45.381,170.500 45.318 C 170.647 45.112,173.067 43.892,173.582 43.764 C 173.856 43.696,174.133 43.555,174.197 43.450 C 174.352 43.200,182.571 43.214,182.875 43.465 C 182.990 43.559,183.383 43.693,183.749 43.761 C 184.115 43.830,184.640 44.023,184.916 44.191 C 185.191 44.359,185.580 44.568,185.779 44.656 C 186.535 44.989,188.461 47.003,188.939 47.960 C 189.202 48.486,189.473 48.942,189.542 48.972 C 189.610 49.003,189.667 49.155,189.667 49.310 C 189.667 49.465,189.770 49.740,189.896 49.921 C 190.022 50.102,190.168 50.550,190.221 50.917 C 190.571 53.352,190.682 53.901,190.871 54.129 C 191.040 54.332,191.083 57.953,191.083 71.901 L 191.083 89.417 190.558 90.417 C 189.764 91.928,186.495 95.000,185.680 95.000 C 185.581 95.000,185.500 95.058,185.500 95.129 C 185.500 95.321,184.539 95.782,183.500 96.090 C 181.847 96.579,181.424 96.887,181.366 97.646 C 181.284 98.721,180.500 98.673,197.113 98.626 L 212.246 98.583 212.461 98.133 C 212.801 97.424,212.575 96.913,211.778 96.589 C 211.396 96.434,210.871 96.200,210.611 96.070 C 210.352 95.940,210.033 95.833,209.903 95.833 C 209.773 95.833,209.667 95.763,209.667 95.678 C 209.667 95.592,209.498 95.470,209.292 95.405 C 209.085 95.341,208.879 95.240,208.833 95.182 C 208.787 95.123,208.412 94.815,208.000 94.497 C 206.795 93.569,205.690 92.228,205.427 91.375 C 205.363 91.169,205.241 91.000,205.155 91.000 C 205.070 91.000,205.000 90.829,205.000 90.620 C 205.000 90.412,204.888 90.081,204.751 89.886 C 204.536 89.578,204.495 87.096,204.444 71.057 C 204.387 53.057,204.317 50.584,203.853 50.120 C 203.751 50.017,203.667 49.679,203.667 49.367 C 203.667 49.056,203.562 48.602,203.434 48.359 C 203.307 48.116,202.988 47.461,202.726 46.905 C 202.464 46.349,202.011 45.599,201.718 45.238 C 201.426 44.878,200.888 44.198,200.522 43.728 C 199.908 42.938,198.529 41.833,198.158 41.833 C 198.071 41.833,198.000 41.758,198.000 41.667 C 198.000 41.575,197.897 41.500,197.770 41.500 C 197.644 41.500,197.447 41.387,197.333 41.250 C 197.219 41.112,196.956 41.000,196.747 41.000 C 196.539 41.000,196.326 40.887,196.273 40.750 C 196.220 40.612,196.040 40.500,195.872 40.500 C 195.704 40.500,195.495 40.436,195.408 40.357 C 195.194 40.164,193.600 39.667,193.196 39.667 C 193.018 39.667,192.657 39.555,192.394 39.418 C 192.131 39.281,191.500 39.168,190.992 39.168 C 190.475 39.167,189.975 39.075,189.859 38.958 C 189.652 38.752,179.429 38.600,178.000 38.783 M232.833 38.779 C 232.512 38.822,232.179 38.927,232.092 39.012 C 232.005 39.097,231.328 39.167,230.587 39.167 C 229.706 39.167,229.126 39.247,228.909 39.399 C 228.727 39.527,228.166 39.668,227.664 39.713 C 226.476 39.820,225.167 40.152,225.167 40.347 C 225.167 40.431,224.947 40.500,224.679 40.500 C 224.410 40.500,224.078 40.612,223.940 40.750 C 223.803 40.887,223.624 41.000,223.544 41.000 C 223.273 41.000,221.086 42.137,220.681 42.487 C 220.462 42.678,220.188 42.833,220.072 42.833 C 219.956 42.833,219.836 42.890,219.806 42.960 C 219.775 43.029,219.412 43.342,219.000 43.655 C 214.771 46.864,213.831 50.951,216.665 53.800 C 218.223 55.366,221.802 55.962,223.812 54.991 C 225.460 54.195,227.833 51.254,227.833 50.008 C 227.833 49.818,227.904 49.532,227.990 49.373 C 228.076 49.214,228.411 48.512,228.735 47.814 C 229.725 45.682,231.774 43.333,232.645 43.333 C 232.827 43.333,233.079 43.231,233.204 43.106 C 233.882 42.427,240.117 42.426,240.794 43.104 C 240.921 43.230,241.168 43.333,241.345 43.333 C 241.522 43.333,241.667 43.408,241.667 43.500 C 241.667 43.592,241.781 43.667,241.920 43.667 C 242.204 43.667,244.165 45.488,244.166 45.753 C 244.166 45.846,244.350 46.193,244.575 46.523 C 244.799 46.854,245.032 47.321,245.093 47.562 C 245.153 47.803,245.261 48.000,245.333 48.000 C 245.405 48.000,245.506 48.244,245.558 48.542 C 245.610 48.840,245.782 49.646,245.941 50.333 C 246.359 52.142,246.360 57.339,245.943 58.750 C 245.780 59.300,245.602 59.938,245.547 60.167 C 245.255 61.371,243.212 63.988,241.941 64.784 C 241.561 65.022,241.213 65.262,241.167 65.317 C 241.036 65.474,240.457 65.817,240.000 66.009 C 239.771 66.105,239.283 66.318,238.917 66.481 C 237.381 67.165,236.324 67.419,233.917 67.686 C 233.092 67.777,232.267 67.920,232.083 68.003 C 231.900 68.086,230.887 68.186,229.833 68.224 C 228.779 68.262,227.392 68.419,226.750 68.572 C 226.108 68.725,225.212 68.910,224.759 68.983 C 224.305 69.056,223.905 69.202,223.870 69.308 C 223.834 69.413,223.592 69.500,223.331 69.500 C 223.071 69.500,222.745 69.612,222.607 69.750 C 222.470 69.887,222.213 70.000,222.038 70.000 C 221.862 70.000,221.500 70.104,221.234 70.230 C 220.968 70.357,220.431 70.596,220.042 70.762 C 219.652 70.928,219.333 71.117,219.333 71.181 C 219.333 71.245,219.165 71.340,218.958 71.393 C 218.752 71.446,218.219 71.792,217.774 72.161 C 217.328 72.531,216.910 72.833,216.844 72.833 C 216.676 72.833,214.333 75.171,214.333 75.339 C 214.333 75.414,214.040 75.918,213.682 76.457 C 212.971 77.527,212.500 78.541,212.500 79.000 C 212.500 79.161,212.387 79.386,212.250 79.500 C 212.109 79.617,212.000 79.980,212.000 80.335 C 212.000 80.680,211.888 81.177,211.751 81.439 C 211.587 81.754,211.502 82.401,211.502 83.333 C 211.502 84.266,211.587 84.913,211.751 85.227 C 211.888 85.490,212.000 86.019,212.000 86.404 C 212.000 86.788,212.110 87.249,212.245 87.426 C 212.379 87.604,212.492 87.882,212.495 88.044 C 212.498 88.206,212.567 88.468,212.648 88.627 C 212.730 88.786,212.992 89.329,213.232 89.833 C 213.725 90.872,214.368 92.040,214.515 92.166 C 214.570 92.212,214.875 92.594,215.193 93.015 C 215.512 93.435,216.068 94.047,216.428 94.374 C 216.788 94.702,217.496 95.351,218.000 95.818 C 218.504 96.285,219.067 96.715,219.250 96.773 C 219.433 96.831,219.621 96.928,219.667 96.988 C 219.792 97.154,221.835 98.167,222.043 98.167 C 222.142 98.167,222.342 98.267,222.487 98.390 C 222.632 98.513,223.200 98.743,223.750 98.901 C 224.300 99.060,224.922 99.259,225.133 99.345 C 225.343 99.430,225.872 99.500,226.308 99.500 C 226.744 99.500,227.194 99.594,227.308 99.708 C 227.592 99.993,232.117 99.998,232.682 99.715 C 232.903 99.604,233.533 99.484,234.083 99.447 C 234.633 99.411,235.496 99.252,236.000 99.094 C 236.504 98.936,237.204 98.747,237.555 98.673 C 237.906 98.600,238.277 98.456,238.380 98.353 C 238.483 98.251,238.696 98.167,238.853 98.167 C 239.011 98.167,239.352 98.061,239.611 97.932 C 240.328 97.576,240.869 97.370,241.375 97.260 C 241.627 97.205,241.833 97.087,241.833 96.997 C 241.833 96.907,241.979 96.833,242.157 96.833 C 242.335 96.833,242.525 96.761,242.580 96.672 C 242.635 96.583,243.052 96.340,243.507 96.131 C 243.961 95.923,244.333 95.695,244.333 95.626 C 244.333 95.557,244.405 95.500,244.492 95.500 C 244.688 95.500,246.229 94.479,246.306 94.298 C 246.336 94.226,246.496 94.167,246.660 94.167 C 246.825 94.167,247.053 94.054,247.167 93.917 C 247.489 93.528,247.577 93.580,249.028 95.008 C 250.289 96.248,251.667 97.333,251.983 97.333 C 252.197 97.333,253.151 97.841,253.257 98.011 C 253.310 98.096,253.536 98.167,253.760 98.167 C 253.984 98.167,254.167 98.240,254.167 98.330 C 254.167 98.420,254.373 98.538,254.625 98.593 C 254.877 98.648,255.233 98.750,255.417 98.820 C 256.605 99.275,257.579 99.500,258.364 99.500 C 258.864 99.500,259.360 99.593,259.475 99.708 C 259.756 99.989,263.625 99.996,264.183 99.716 C 264.403 99.606,264.958 99.485,265.417 99.446 C 266.936 99.320,268.963 98.572,270.099 97.720 C 270.383 97.507,270.691 97.333,270.783 97.333 C 271.261 97.333,272.826 95.202,272.839 94.534 C 272.842 94.378,272.954 94.104,273.089 93.926 C 274.301 92.323,271.781 90.338,270.454 91.850 C 270.204 92.135,269.998 92.454,269.996 92.559 C 269.991 92.817,268.363 94.367,267.792 94.657 C 267.253 94.930,265.010 94.971,264.458 94.717 C 264.252 94.622,263.860 94.441,263.587 94.314 C 262.874 93.983,260.928 92.020,260.631 91.333 C 260.492 91.013,260.248 90.412,260.088 90.000 C 259.928 89.587,259.730 89.078,259.648 88.867 C 259.565 88.651,259.500 79.939,259.500 68.857 C 259.500 51.858,259.467 49.187,259.255 48.907 C 259.121 48.729,259.008 48.417,259.005 48.214 C 259.000 47.813,258.494 46.618,258.292 46.528 C 258.223 46.497,258.167 46.380,258.167 46.268 C 258.167 45.909,256.861 44.444,255.848 43.667 C 255.549 43.438,255.217 43.171,255.111 43.074 C 255.004 42.977,254.656 42.752,254.336 42.574 C 254.017 42.396,253.656 42.156,253.533 42.042 C 253.410 41.927,253.214 41.833,253.097 41.833 C 252.898 41.833,252.120 41.511,251.461 41.156 C 251.301 41.070,251.015 41.000,250.824 41.000 C 250.633 41.000,250.364 40.887,250.226 40.750 C 250.089 40.612,249.803 40.500,249.590 40.500 C 249.378 40.500,248.990 40.388,248.727 40.251 C 248.465 40.114,248.011 40.002,247.718 40.001 C 247.426 40.000,247.140 39.925,247.083 39.833 C 247.027 39.742,246.591 39.664,246.115 39.661 C 245.620 39.658,245.112 39.551,244.926 39.411 C 244.704 39.243,244.182 39.167,243.251 39.167 C 242.401 39.167,241.824 39.090,241.694 38.961 C 241.486 38.753,234.158 38.603,232.833 38.779 M358.072 39.402 C 357.888 39.531,357.215 39.673,356.577 39.717 C 355.122 39.818,353.665 40.102,353.439 40.328 C 353.344 40.422,353.087 40.500,352.867 40.500 C 352.648 40.500,352.269 40.608,352.026 40.739 C 351.782 40.871,351.265 41.110,350.875 41.271 C 350.485 41.432,350.167 41.625,350.167 41.699 C 350.167 41.773,349.984 41.833,349.760 41.833 C 349.536 41.833,349.309 41.904,349.256 41.990 C 349.203 42.076,348.831 42.311,348.430 42.511 C 348.030 42.711,347.525 43.034,347.309 43.229 C 347.093 43.424,346.408 43.992,345.787 44.492 C 344.574 45.466,343.504 46.759,343.064 47.782 C 342.914 48.131,342.688 48.616,342.562 48.859 C 342.266 49.432,342.263 51.324,342.558 51.755 C 342.682 51.935,342.831 52.279,342.889 52.517 C 343.032 53.108,344.745 54.749,345.575 55.091 C 345.946 55.244,346.449 55.474,346.692 55.601 C 347.322 55.932,349.891 55.919,350.226 55.583 C 350.364 55.446,350.634 55.333,350.827 55.333 C 351.894 55.333,355.000 52.042,355.000 50.912 C 355.000 50.777,355.060 50.667,355.132 50.667 C 355.285 50.667,355.833 48.975,355.833 48.503 C 355.833 48.329,355.904 48.143,355.990 48.089 C 356.076 48.036,356.320 47.640,356.532 47.210 C 357.297 45.654,359.813 43.333,360.735 43.333 C 360.959 43.333,361.255 43.221,361.393 43.083 C 361.753 42.723,366.763 42.727,367.240 43.089 C 367.418 43.223,367.776 43.333,368.035 43.333 C 369.347 43.333,371.970 45.891,372.480 47.667 C 372.599 48.079,372.797 48.642,372.920 48.917 C 373.043 49.192,373.184 49.679,373.232 50.000 C 373.281 50.321,373.404 51.146,373.507 51.833 C 373.736 53.372,373.628 57.939,373.334 59.083 C 372.521 62.254,370.556 64.712,367.750 66.072 C 367.200 66.339,366.712 66.604,366.667 66.662 C 366.548 66.811,364.855 67.333,364.491 67.333 C 364.323 67.333,364.140 67.408,364.083 67.500 C 364.027 67.592,363.704 67.667,363.365 67.668 C 363.027 67.668,362.535 67.781,362.273 67.918 C 361.937 68.093,361.272 68.167,360.033 68.167 C 359.063 68.167,357.853 68.240,357.343 68.331 C 356.032 68.563,354.397 68.828,353.374 68.975 C 352.893 69.044,352.409 69.191,352.299 69.301 C 352.190 69.410,351.858 69.500,351.562 69.500 C 351.266 69.500,350.911 69.613,350.774 69.750 C 350.636 69.887,350.364 70.000,350.168 70.000 C 349.973 70.000,349.424 70.180,348.948 70.400 C 348.472 70.620,347.915 70.850,347.708 70.911 C 347.502 70.972,347.333 71.092,347.333 71.178 C 347.333 71.263,347.222 71.333,347.086 71.333 C 346.792 71.333,345.167 72.308,345.167 72.484 C 345.167 72.551,344.885 72.767,344.542 72.964 C 343.712 73.441,342.627 74.473,342.118 75.271 C 341.891 75.626,341.547 76.097,341.353 76.317 C 341.159 76.537,341.000 76.819,341.000 76.942 C 341.000 77.066,340.944 77.167,340.875 77.168 C 340.698 77.169,340.168 78.138,340.161 78.472 C 340.158 78.625,340.046 78.896,339.911 79.074 C 339.777 79.251,339.667 79.634,339.667 79.923 C 339.667 80.212,339.547 80.688,339.401 80.981 C 339.066 81.653,339.113 86.180,339.458 86.525 C 339.573 86.640,339.667 87.026,339.667 87.383 C 339.667 87.740,339.770 88.231,339.896 88.474 C 340.023 88.718,340.218 89.142,340.331 89.417 C 340.692 90.299,341.240 91.333,341.346 91.333 C 341.403 91.333,341.585 91.633,341.750 92.000 C 341.915 92.367,342.095 92.667,342.150 92.668 C 342.205 92.668,342.434 92.950,342.660 93.293 C 343.091 93.951,343.929 94.794,345.156 95.807 C 345.563 96.142,346.123 96.623,346.402 96.875 C 346.680 97.127,346.992 97.333,347.095 97.333 C 347.352 97.333,348.305 97.819,348.423 98.011 C 348.476 98.096,348.665 98.167,348.843 98.167 C 349.021 98.167,349.167 98.240,349.167 98.330 C 349.167 98.420,349.373 98.543,349.625 98.603 C 349.877 98.663,350.158 98.757,350.250 98.811 C 350.689 99.069,352.140 99.490,352.611 99.495 C 352.901 99.498,353.170 99.594,353.208 99.708 C 353.323 100.054,361.017 100.099,361.699 99.759 C 361.985 99.616,362.465 99.500,362.767 99.500 C 363.371 99.500,366.550 98.515,366.639 98.300 C 366.669 98.227,366.827 98.167,366.989 98.167 C 367.151 98.167,367.636 97.979,368.067 97.750 C 368.498 97.521,368.970 97.333,369.115 97.333 C 369.261 97.333,369.745 97.108,370.192 96.833 C 370.639 96.558,371.079 96.333,371.169 96.333 C 371.259 96.333,371.333 96.258,371.333 96.167 C 371.333 96.075,371.433 96.000,371.555 96.000 C 371.784 96.000,374.834 94.044,375.022 93.777 C 375.080 93.694,375.199 93.754,375.286 93.909 C 375.524 94.335,378.036 96.833,378.225 96.833 C 378.316 96.833,378.511 96.942,378.657 97.075 C 379.481 97.820,383.448 99.500,384.384 99.500 C 384.610 99.500,385.010 99.612,385.273 99.749 C 385.968 100.111,392.366 100.111,393.061 99.749 C 393.323 99.612,393.777 99.500,394.069 99.500 C 394.361 99.500,394.671 99.437,394.758 99.361 C 394.845 99.284,395.292 99.089,395.750 98.927 C 396.579 98.633,398.166 97.681,398.166 97.476 C 398.167 97.418,398.337 97.327,398.546 97.274 C 398.754 97.222,399.111 96.878,399.338 96.511 C 399.564 96.143,399.806 95.840,399.875 95.838 C 400.275 95.823,399.997 91.888,399.580 91.665 C 399.257 91.492,399.114 91.486,398.963 91.637 C 398.855 91.745,398.600 91.833,398.395 91.833 C 398.050 91.833,397.333 92.526,397.333 92.860 C 397.333 93.005,396.565 93.916,395.936 94.517 C 395.763 94.682,395.408 94.864,395.146 94.921 C 394.884 94.979,394.628 95.095,394.575 95.179 C 394.450 95.383,392.742 95.378,392.373 95.173 C 392.214 95.084,391.733 94.860,391.305 94.674 C 390.227 94.207,388.530 92.481,387.935 91.249 C 387.671 90.699,387.389 90.120,387.310 89.961 C 387.231 89.801,387.166 89.464,387.166 89.211 C 387.165 88.957,387.053 88.535,386.916 88.273 C 386.699 87.857,386.667 85.273,386.667 68.335 C 386.667 47.514,386.714 48.828,385.906 47.058 C 385.774 46.769,385.667 46.454,385.667 46.356 C 385.667 46.149,383.170 43.667,382.961 43.667 C 382.883 43.667,382.616 43.477,382.368 43.246 C 382.120 43.015,381.598 42.671,381.209 42.482 C 380.820 42.293,380.460 42.069,380.408 41.986 C 380.356 41.902,380.093 41.833,379.823 41.833 C 379.554 41.833,379.333 41.767,379.333 41.686 C 379.333 41.526,377.861 41.000,377.415 41.000 C 377.265 41.000,377.030 40.887,376.893 40.750 C 376.755 40.612,376.354 40.500,376.002 40.500 C 375.650 40.500,375.336 40.429,375.306 40.341 C 375.237 40.145,373.611 39.825,372.167 39.724 C 371.571 39.682,370.847 39.540,370.558 39.407 C 369.793 39.057,358.572 39.051,358.072 39.402 M304.104 43.504 C 304.199 43.599,304.682 43.717,305.179 43.768 C 305.677 43.818,306.233 43.920,306.417 43.993 C 306.600 44.067,307.050 44.242,307.417 44.383 C 307.783 44.523,308.196 44.683,308.333 44.737 C 309.790 45.311,312.249 47.516,313.083 48.994 C 314.084 50.768,314.330 51.254,314.332 51.458 C 314.333 51.573,314.390 51.667,314.459 51.667 C 314.662 51.667,315.243 53.472,315.531 55.000 C 315.626 55.504,315.770 55.988,315.852 56.075 C 315.933 56.162,316.000 56.614,316.000 57.080 C 316.000 57.545,316.107 58.078,316.237 58.264 C 316.925 59.247,317.104 71.001,316.562 79.657 C 316.511 80.467,316.373 81.208,316.237 81.403 C 316.106 81.590,316.000 82.129,316.000 82.611 C 316.000 83.089,315.928 83.525,315.841 83.579 C 315.754 83.633,315.631 84.126,315.569 84.675 C 315.507 85.225,315.391 85.714,315.311 85.764 C 315.232 85.813,315.164 86.017,315.161 86.218 C 315.158 86.419,315.046 86.729,314.911 86.907 C 314.777 87.085,314.667 87.404,314.667 87.615 C 314.667 87.827,314.610 88.000,314.542 88.001 C 314.473 88.001,314.272 88.357,314.096 88.792 C 313.919 89.227,313.730 89.621,313.675 89.667 C 313.621 89.712,313.261 90.237,312.877 90.833 C 312.492 91.429,311.945 92.104,311.660 92.333 C 311.375 92.563,310.962 92.901,310.742 93.085 C 310.523 93.268,310.060 93.565,309.713 93.743 C 309.367 93.922,308.981 94.144,308.856 94.237 C 308.569 94.450,307.498 94.827,307.167 94.832 C 307.029 94.834,306.702 94.947,306.439 95.084 C 306.177 95.221,305.539 95.337,305.023 95.341 C 304.506 95.345,303.746 95.425,303.333 95.519 C 301.882 95.851,301.544 95.861,300.770 95.599 C 300.340 95.453,299.653 95.333,299.244 95.333 C 298.835 95.333,298.500 95.259,298.500 95.169 C 298.500 95.078,298.198 94.956,297.830 94.897 C 297.461 94.838,297.119 94.724,297.070 94.645 C 297.021 94.565,296.835 94.500,296.657 94.500 C 296.479 94.500,296.333 94.426,296.333 94.337 C 296.333 94.247,296.146 94.126,295.917 94.068 C 295.688 94.011,295.500 93.914,295.500 93.853 C 295.500 93.792,295.219 93.594,294.875 93.413 C 294.163 93.038,294.133 93.016,292.951 92.000 C 291.706 90.930,289.358 87.935,288.575 86.417 C 288.433 86.142,288.068 85.455,287.763 84.892 C 287.459 84.328,287.159 83.597,287.097 83.267 C 287.036 82.937,286.913 82.667,286.826 82.667 C 286.738 82.667,286.664 82.535,286.661 82.375 C 286.655 82.037,286.101 80.379,285.941 80.219 C 285.882 80.160,285.833 79.878,285.833 79.593 C 285.833 79.307,285.729 78.926,285.602 78.744 C 285.475 78.563,285.329 78.040,285.278 77.582 C 285.227 77.124,285.055 75.925,284.896 74.917 C 284.504 72.431,284.506 67.440,284.901 64.917 C 285.059 63.908,285.226 62.783,285.273 62.417 C 285.319 62.050,285.465 61.514,285.595 61.225 C 285.726 60.936,285.833 60.522,285.833 60.306 C 285.833 60.089,285.992 59.501,286.185 58.998 C 286.379 58.495,286.578 57.861,286.626 57.589 C 286.675 57.317,286.817 56.993,286.941 56.869 C 287.065 56.744,287.167 56.463,287.167 56.244 C 287.167 56.025,287.354 55.509,287.583 55.099 C 287.813 54.688,288.000 54.236,288.000 54.093 C 288.000 53.950,288.068 53.833,288.150 53.833 C 288.233 53.833,288.374 53.627,288.463 53.375 C 288.553 53.123,288.879 52.540,289.188 52.080 C 289.497 51.620,289.900 50.947,290.083 50.585 C 290.509 49.745,294.052 46.181,294.875 45.764 C 295.219 45.590,295.500 45.398,295.500 45.337 C 295.500 45.080,298.169 43.919,299.132 43.756 C 299.517 43.691,299.874 43.569,299.926 43.485 C 300.056 43.274,303.892 43.292,304.104 43.504 M116.461 76.792 C 116.425 84.049,116.372 85.861,116.181 86.333 C 116.051 86.654,115.841 87.179,115.715 87.500 C 115.588 87.821,115.412 88.214,115.325 88.373 C 115.238 88.532,115.167 88.741,115.167 88.838 C 115.167 88.935,115.009 89.180,114.817 89.382 C 114.625 89.584,114.120 90.197,113.697 90.744 C 112.860 91.822,112.015 92.654,111.748 92.662 C 111.656 92.664,111.389 92.835,111.155 93.042 C 110.761 93.390,110.373 93.624,109.083 94.289 C 108.226 94.732,108.087 94.788,107.538 94.908 C 107.244 94.973,106.961 95.095,106.909 95.179 C 106.793 95.367,101.667 95.388,101.667 95.201 C 101.667 95.128,101.254 94.929,100.750 94.757 C 100.246 94.586,99.833 94.388,99.833 94.317 C 99.833 94.247,99.697 94.146,99.530 94.093 C 98.607 93.800,96.342 91.065,96.072 89.917 C 96.007 89.642,95.882 89.325,95.793 89.212 C 95.576 88.936,95.579 84.626,95.796 84.045 C 95.891 83.791,96.094 83.177,96.247 82.681 C 96.400 82.185,96.707 81.540,96.929 81.249 C 97.151 80.957,97.333 80.641,97.333 80.546 C 97.333 80.452,97.456 80.272,97.606 80.148 C 97.756 80.023,98.068 79.620,98.300 79.252 C 98.735 78.560,100.812 76.468,101.833 75.693 C 102.154 75.449,102.603 75.081,102.832 74.875 C 103.060 74.669,103.312 74.500,103.391 74.500 C 103.521 74.500,104.797 73.569,105.000 73.325 C 105.046 73.271,105.196 73.177,105.333 73.118 C 105.471 73.059,105.958 72.785,106.417 72.509 C 106.875 72.233,107.606 71.842,108.042 71.639 C 108.477 71.437,108.833 71.210,108.833 71.135 C 108.833 71.061,108.974 71.000,109.146 71.000 C 109.318 71.000,109.553 70.887,109.667 70.750 C 109.781 70.612,109.971 70.500,110.090 70.500 C 110.353 70.500,111.395 69.966,111.472 69.792 C 111.503 69.723,111.662 69.667,111.827 69.667 C 111.991 69.667,112.219 69.554,112.333 69.417 C 112.447 69.279,112.642 69.167,112.765 69.167 C 112.972 69.167,113.861 68.823,114.539 68.480 C 114.699 68.399,114.965 68.333,115.133 68.333 C 115.300 68.333,115.582 68.223,115.760 68.089 C 116.525 67.510,116.508 67.307,116.461 76.792 M246.286 75.958 C 246.230 84.263,246.239 84.127,245.570 86.917 C 245.504 87.192,245.396 87.454,245.330 87.500 C 245.264 87.546,245.039 87.958,244.832 88.417 C 244.022 90.204,241.856 92.588,240.292 93.413 C 239.948 93.594,239.667 93.792,239.667 93.852 C 239.667 93.912,239.535 94.005,239.375 94.059 C 239.215 94.113,238.971 94.225,238.833 94.309 C 238.437 94.550,237.792 94.798,237.252 94.917 C 236.978 94.977,236.702 95.109,236.639 95.211 C 236.487 95.458,231.279 95.465,230.971 95.218 C 230.849 95.121,230.563 94.983,230.336 94.913 C 229.606 94.689,228.611 93.967,227.569 92.905 C 226.670 91.991,226.397 91.596,225.676 90.179 C 225.579 89.989,225.411 89.665,225.302 89.458 C 224.608 88.143,224.998 84.319,226.038 82.250 C 227.305 79.727,231.473 75.000,232.430 75.000 C 232.495 75.000,232.891 74.719,233.310 74.375 C 233.728 74.031,234.198 73.675,234.354 73.583 C 234.511 73.492,235.210 73.060,235.908 72.625 C 236.607 72.190,237.245 71.833,237.326 71.833 C 237.490 71.833,238.536 71.304,238.667 71.155 C 238.712 71.102,238.862 71.009,239.000 70.947 C 239.137 70.886,239.362 70.764,239.500 70.677 C 240.037 70.335,243.319 68.844,243.771 68.735 C 244.035 68.672,244.325 68.566,244.417 68.500 C 244.508 68.434,244.790 68.330,245.042 68.270 C 245.294 68.210,245.500 68.087,245.500 67.997 C 245.500 67.907,245.689 67.833,245.920 67.833 L 246.340 67.833 246.286 75.958 M373.528 69.375 C 373.764 74.533,373.330 86.694,372.894 87.129 C 372.769 87.255,372.667 87.498,372.667 87.671 C 372.667 88.839,369.686 92.593,368.117 93.401 C 367.778 93.576,367.500 93.782,367.500 93.860 C 367.500 93.937,367.393 94.000,367.262 94.000 C 367.131 94.000,366.925 94.094,366.804 94.208 C 366.682 94.323,366.358 94.517,366.083 94.640 C 365.808 94.763,365.371 94.970,365.111 95.099 C 364.852 95.228,364.473 95.333,364.268 95.333 C 364.064 95.333,363.751 95.443,363.574 95.578 C 363.119 95.922,359.393 95.934,358.722 95.595 C 358.462 95.463,357.804 95.145,357.258 94.886 C 356.258 94.412,353.971 92.326,353.652 91.597 C 353.569 91.406,353.437 91.138,353.360 91.000 C 352.940 90.257,352.833 89.962,352.832 89.544 C 352.832 89.291,352.719 88.869,352.582 88.606 C 352.428 88.310,352.333 87.668,352.333 86.917 C 352.333 86.166,352.428 85.523,352.582 85.227 C 352.719 84.965,352.832 84.511,352.832 84.218 C 352.833 83.926,352.908 83.640,353.000 83.583 C 353.092 83.527,353.167 83.260,353.167 82.990 C 353.167 82.721,353.237 82.500,353.322 82.500 C 353.408 82.500,353.529 82.331,353.591 82.125 C 353.654 81.919,353.884 81.511,354.103 81.219 C 354.321 80.928,354.500 80.636,354.500 80.571 C 354.500 80.507,354.800 80.128,355.167 79.731 C 355.533 79.333,355.834 78.912,355.834 78.795 C 355.835 78.679,356.079 78.413,356.376 78.205 C 356.673 77.997,357.592 77.192,358.417 76.414 C 359.242 75.637,359.999 75.001,360.099 75.001 C 360.199 75.000,360.499 74.813,360.766 74.584 C 361.032 74.354,361.304 74.167,361.369 74.167 C 361.435 74.167,361.735 73.958,362.036 73.702 C 362.337 73.447,362.901 73.091,363.290 72.911 C 363.678 72.731,363.997 72.527,363.998 72.458 C 363.999 72.390,364.115 72.333,364.255 72.333 C 364.396 72.333,364.554 72.221,364.606 72.083 C 364.659 71.946,364.882 71.833,365.101 71.833 C 365.321 71.833,365.500 71.764,365.500 71.680 C 365.500 71.596,365.725 71.477,366.000 71.417 C 366.275 71.356,366.500 71.238,366.500 71.153 C 366.500 71.069,366.652 71.000,366.839 71.000 C 367.025 71.000,367.220 70.887,367.273 70.750 C 367.326 70.612,367.507 70.500,367.675 70.500 C 367.843 70.500,368.023 70.431,368.075 70.346 C 368.128 70.262,368.395 70.143,368.669 70.083 C 368.943 70.023,369.167 69.904,369.167 69.820 C 369.167 69.736,369.286 69.667,369.433 69.667 C 369.579 69.667,369.898 69.563,370.141 69.437 C 370.926 69.029,372.971 68.232,373.361 68.181 C 373.423 68.173,373.498 68.710,373.528 69.375 " stroke="none" fill="#ffffff" fill-rule="evenodd"></path><path id="path1" d="M337.250 7.112 C 336.482 7.302,336.500 6.946,336.500 21.749 C 336.500 32.429,336.548 35.814,336.700 35.967 C 336.849 36.116,338.685 36.167,343.931 36.167 L 350.962 36.167 351.234 35.752 C 351.670 35.085,351.560 7.822,351.119 7.381 C 350.829 7.090,338.319 6.848,337.250 7.112 M380.027 7.591 C 379.744 8.212,379.750 35.683,380.033 35.967 C 380.183 36.116,382.042 36.167,387.371 36.167 L 394.508 36.167 394.671 35.739 C 394.971 34.951,394.883 8.247,394.579 7.658 L 394.325 7.167 387.272 7.167 L 380.220 7.167 380.027 7.591 M364.399 10.625 C 364.063 11.335,363.649 12.217,363.478 12.583 C 363.307 12.950,363.167 13.164,363.167 13.060 C 363.167 12.955,362.885 12.749,362.542 12.601 C 362.198 12.453,361.785 12.238,361.624 12.124 C 361.386 11.956,361.244 11.965,360.874 12.172 C 360.447 12.411,360.131 13.167,360.457 13.167 C 360.538 13.167,360.623 13.517,360.645 13.945 C 360.667 14.373,360.765 14.873,360.864 15.057 C 360.962 15.241,361.069 15.727,361.102 16.138 C 361.134 16.549,361.208 17.033,361.265 17.215 C 361.323 17.397,360.969 17.123,360.478 16.607 C 359.308 15.376,358.216 15.430,357.975 16.732 C 357.873 17.285,357.405 17.447,356.853 17.122 C 355.667 16.421,353.996 16.851,354.258 17.790 C 354.329 18.043,354.369 18.386,354.348 18.552 C 354.326 18.718,354.420 19.024,354.556 19.232 C 355.035 19.963,355.046 20.798,354.584 21.297 C 354.114 21.803,354.068 22.224,354.417 22.833 C 354.548 23.063,354.658 23.202,354.661 23.144 C 354.664 23.086,354.944 23.292,355.283 23.603 C 355.621 23.913,355.962 24.167,356.040 24.167 C 356.118 24.167,356.383 24.354,356.631 24.583 C 356.878 24.813,357.131 25.000,357.194 25.000 C 357.256 25.000,357.532 25.206,357.805 25.458 C 358.079 25.710,358.535 26.128,358.818 26.385 C 359.377 26.894,359.463 27.398,359.078 27.907 C 358.488 28.688,359.096 30.095,359.857 29.710 C 360.073 29.601,360.587 29.475,361.000 29.431 C 361.412 29.387,362.125 29.274,362.583 29.180 C 363.042 29.087,363.604 28.976,363.833 28.934 L 364.250 28.858 364.199 31.304 C 364.135 34.325,364.179 34.419,365.645 34.411 C 366.965 34.403,366.909 34.524,366.970 31.555 L 367.024 28.970 368.054 29.087 C 368.620 29.152,369.196 29.259,369.333 29.326 C 369.471 29.392,369.921 29.462,370.333 29.482 C 370.746 29.502,371.155 29.589,371.242 29.676 C 371.944 30.376,372.694 29.056,372.251 27.897 C 371.934 27.066,372.092 26.432,372.661 26.252 C 372.811 26.204,373.234 25.884,373.600 25.541 C 374.681 24.528,375.379 23.942,376.010 23.518 C 377.105 22.784,377.361 22.060,376.757 21.409 C 376.321 20.938,376.277 20.061,376.654 19.357 C 376.910 18.878,376.881 17.247,376.613 17.024 C 376.334 16.793,375.159 16.820,374.849 17.065 C 374.721 17.167,374.571 17.241,374.516 17.230 C 374.461 17.218,374.313 17.249,374.186 17.298 C 373.825 17.436,373.444 17.107,373.294 16.528 C 373.219 16.238,373.066 15.991,372.954 15.981 C 372.842 15.970,372.637 15.950,372.500 15.935 C 372.013 15.884,370.675 16.733,370.661 17.103 C 370.649 17.464,369.833 17.872,369.833 17.518 C 369.833 17.335,369.908 17.140,370.000 17.083 C 370.092 17.027,370.167 16.645,370.167 16.234 C 370.167 15.824,370.276 15.321,370.410 15.117 C 370.548 14.906,370.674 14.243,370.702 13.581 L 370.750 12.417 369.951 12.444 C 369.511 12.460,369.061 12.544,368.951 12.632 C 368.570 12.936,368.000 13.037,368.000 12.800 C 368.000 12.678,367.813 12.242,367.584 11.831 C 367.356 11.420,366.982 10.690,366.753 10.208 C 366.355 9.369,366.311 9.333,365.674 9.333 L 365.010 9.333 364.399 10.625 " stroke="none" fill="#ed1c24" fill-rule="evenodd"></path></g></svg>