<svg
   xmlns:svg="http://www.w3.org/2000/svg"
   xmlns="http://www.w3.org/2000/svg"
   version="1.0"
   width="1024"
   height="338"
   viewBox="-1.1146875 -1.1146875 119.323125 39.385625"
   id="svg">
  <defs
     id="defs2840" />
  <path
     d="M 27.375,-1.1368684e-13 C 24.85855,-1.1368684e-13 22.81249,2.04712 22.8125,4.5625 C 22.8125,7.08137 24.85855,9.12501 27.375,9.125 C 29.89039,9.125 31.93751,7.08137 31.9375,4.5625 C 31.9375,2.04713 29.89039,9.9999999e-06 27.375,-1.1368684e-13 z M 48.8125,10.78125 C 41.56683,10.78125 36.05349,17.12496 35.9375,24.21875 C 35.90153,26.4464 36.37799,28.53708 37.21875,30.28125 C 32.43275,31.67745 31.50605,29.38345 31.34375,25.0625 C 31.14662,19.85904 31.12499,12.50001 31.125,12.5 L 23.46875,12.5 L 23.46875,27.625 C 23.46875,30.76088 24.2312,35.62671 29.65625,36.59375 C 33.03552,37.19694 36.33508,36.53056 40.75,34.53125 C 42.86292,36.04339 45.67794,37.03125 48.78125,37.03125 C 53.06865,37.03125 56.56084,35.14349 59.15625,33.40625 L 59.15625,28.625 C 55.93123,30.7009 51.20595,32.20212 48.28125,30.0625 C 51.26858,27.9867 54.12481,25.49197 56,22.5 C 58.99074,17.73142 57.03924,10.78125 48.8125,10.78125 z M 13.6875,11.5 C 6.13801,11.5 0,16.11094 0,24.40625 C 1e-05,32.84172 5.94445,37.15625 13.03125,37.15625 C 15.08386,37.15625 18.29267,36.74498 20.15625,35.8125 L 20.15625,29.3125 C 18.54311,29.93759 16.65001,30.1875 15.15625,30.1875 C 12.09473,30.1875 8.5,28.38135 8.5,24.5625 C 8.49999,20.19868 11.89732,18.5625 15.28125,18.5625 C 16.9129,18.5625 18.76458,19.05943 20.15625,19.46875 L 20.15625,12.5625 C 18.23235,11.98619 15.5152,11.5 13.6875,11.5 z M 99.5625,11.5625 C 95.98713,11.57175 92.6798,12.4819 89.5,13.53125 L 89.5,19.6875 C 92.25074,18.66467 95.57364,18.1875 98.15625,18.1875 C 101.46253,18.18751 103.03125,19.62357 103.03125,22.15625 L 103.03125,22.5625 C 101.62796,22.06268 99.4212,21.625 97.15625,21.625 C 91.40315,21.625 87.5625,24.23898 87.5625,29.3125 L 87.5625,29.40625 C 87.56249,34.29896 91.11241,36.96875 95.78125,36.96875 C 98.99714,36.96875 101.32196,35.7653 103,33.90625 L 103,36.4375 L 111.3125,36.4375 L 111.3125,22.34375 C 111.31249,18.89949 110.73167,16.37274 108.875,14.5625 C 106.93021,12.61311 103.95534,11.55319 99.5625,11.5625 z M 77.40625,11.59375 C 74.00382,11.59375 71.78784,13.5157 70.21875,15.53125 L 69.875,15.96875 L 69.875,12.25 L 61.65625,12.25 L 61.65625,36.4375 L 69.875,36.4375 L 69.875,23.1875 C 69.875,20.42272 71.48303,18.875 73.6875,18.875 C 75.85495,18.875 77.31249,20.43556 77.3125,23.1875 L 77.3125,36.4375 L 85.5625,36.4375 L 85.5625,20.4375 C 85.5625,14.95229 82.49616,11.59375 77.40625,11.59375 z M 49.28125,17.625 C 51.37463,17.66522 52.78215,19.70762 50.3125,22.84375 C 49.17487,24.28533 47.4924,25.6757 45.5,26.96875 C 42.71911,21.86732 46.1681,18.26603 48.375,17.75 C 48.53265,17.71289 48.6895,17.67253 48.84375,17.65625 C 48.98836,17.64098 49.14169,17.62232 49.28125,17.625 z M 99.78125,25.78125 C 101.05341,25.78124 102.18227,26.15081 103.125,26.5625 C 103.12847,29.70066 101.36605,31.59375 98.875,31.59375 C 97.10999,31.59375 95.84375,30.58192 95.84375,28.90625 L 95.84375,28.8125 C 95.84377,27.00333 97.29155,25.78125 99.78125,25.78125 z M 115.5625,33.4375 C 114.73787,33.4375 114.06248,34.0724 114.0625,34.9375 C 114.0625,35.78635 114.73789,36.4375 115.5625,36.4375 C 116.38697,36.4375 117.09375,35.79917 117.09375,34.9375 C 117.09375,34.08521 116.38699,33.4375 115.5625,33.4375 z M 115.5625,33.65625 C 116.26632,33.65625 116.84377,34.21041 116.84375,34.9375 C 116.84375,35.66923 116.26634,36.21874 115.5625,36.21875 C 114.85615,36.21875 114.31251,35.65642 114.3125,34.9375 C 114.3125,34.19759 114.85617,33.65625 115.5625,33.65625 z M 115.03125,34.0625 L 115.03125,35.8125 L 115.25,35.8125 L 115.25,35.0625 L 115.5625,35.0625 L 116.03125,35.8125 L 116.3125,35.8125 L 115.8125,35.0625 C 116.06997,35.03472 116.28127,34.90573 116.28125,34.59375 C 116.28125,34.247 116.07141,34.06251 115.65625,34.0625 L 115.03125,34.0625 z M 115.25,34.28125 L 115.625,34.28125 C 115.81178,34.28125 116.03123,34.32134 116.03125,34.5625 C 116.03125,34.83853 115.80605,34.84374 115.5625,34.84375 L 115.25,34.84375 L 115.25,34.28125 z"
     id="path2712"
     style="fill:#ffffff;fill-opacity:1;fill-rule:evenodd;stroke:none" />
</svg>
