<svg id="svg" version="1.1" width="400" height="171.0144927536232" viewBox="0 0 400 171.0144927536232" xmlns="http://www.w3.org/2000/svg" xmlns:xlink="http://www.w3.org/1999/xlink" ><g id="svgg"><path id="path0" d="M30.430 19.488 C 29.906 19.912,29.702 26.645,30.179 27.786 C 30.598 28.789,28.987 28.743,63.134 28.743 C 97.314 28.743,95.602 28.790,96.011 27.822 C 96.468 26.738,96.321 19.885,95.832 19.489 C 95.198 18.975,31.064 18.975,30.430 19.488 M106.225 19.442 C 106.043 19.660,105.976 20.589,105.935 23.422 C 105.873 27.709,105.996 28.411,106.844 28.592 C 107.935 28.826,199.401 28.757,199.722 28.523 C 200.364 28.053,199.094 26.578,196.858 25.196 C 196.588 25.029,195.934 24.604,195.403 24.251 C 194.873 23.899,194.170 23.523,193.841 23.417 C 193.512 23.310,192.819 22.968,192.301 22.656 C 191.784 22.345,190.860 21.965,190.248 21.811 C 189.636 21.658,188.858 21.343,188.519 21.111 C 188.047 20.788,187.392 20.610,185.749 20.358 C 184.566 20.176,183.150 19.852,182.603 19.637 L 181.608 19.247 144.035 19.202 C 109.163 19.160,106.444 19.178,106.225 19.442 M220.164 19.488 C 219.767 19.810,219.760 19.872,219.704 23.381 C 219.640 27.405,219.750 28.082,220.528 28.485 C 221.047 28.753,274.630 28.858,275.877 28.593 C 276.639 28.431,276.677 27.396,275.980 25.764 C 275.696 25.097,275.333 24.089,275.175 23.524 C 275.017 22.960,274.784 22.340,274.657 22.147 C 274.531 21.953,274.272 21.343,274.081 20.790 C 273.891 20.237,273.609 19.644,273.454 19.473 C 273.002 18.974,220.782 18.989,220.164 19.488 M317.632 19.542 C 317.485 19.751,317.365 19.984,317.365 20.059 C 317.365 20.134,317.169 20.491,316.930 20.853 C 316.691 21.215,316.273 22.310,316.002 23.287 C 315.731 24.265,315.311 25.443,315.068 25.906 C 314.495 27.001,314.469 28.099,315.008 28.476 C 315.405 28.754,367.643 28.903,369.621 28.632 C 370.964 28.448,371.001 28.317,371.001 23.730 C 371.001 19.823,371.000 19.815,370.597 19.489 C 370.203 19.170,369.534 19.162,344.045 19.162 L 317.898 19.162 317.632 19.542 M30.622 37.756 C 29.946 38.218,29.945 38.224,29.943 42.120 C 29.940 45.763,29.947 45.837,30.320 46.098 C 30.813 46.443,95.038 46.512,95.691 46.168 C 96.301 45.847,96.316 45.744,96.319 42.054 C 96.322 38.556,96.317 38.508,95.909 38.033 L 95.496 37.553 63.271 37.509 C 33.182 37.468,31.018 37.485,30.622 37.756 M106.258 37.918 C 105.777 38.529,105.703 45.627,106.172 46.096 C 106.596 46.520,210.281 46.422,210.706 45.997 C 210.967 45.736,210.963 45.650,210.646 44.800 C 210.458 44.296,210.216 43.422,210.107 42.857 C 209.998 42.293,209.596 41.176,209.214 40.376 C 208.832 39.577,208.428 38.730,208.317 38.494 C 207.838 37.484,211.680 37.557,156.857 37.510 L 106.613 37.466 106.258 37.918 M220.492 37.735 C 219.725 38.151,219.675 38.429,219.675 42.243 L 219.675 45.842 220.180 46.103 C 221.052 46.554,282.122 46.494,282.532 46.041 C 282.883 45.653,282.410 43.365,281.762 42.315 C 281.563 41.995,281.225 41.090,281.009 40.305 C 280.519 38.527,280.354 38.217,279.673 37.802 C 278.929 37.348,221.324 37.283,220.492 37.735 M311.634 37.675 C 310.797 37.968,310.568 38.284,310.256 39.576 C 310.093 40.252,309.779 41.165,309.559 41.607 C 309.338 42.048,308.994 43.010,308.793 43.745 C 308.593 44.480,308.364 45.205,308.285 45.357 C 308.193 45.531,308.227 45.752,308.376 45.956 C 308.606 46.270,309.447 46.280,339.506 46.323 L 370.399 46.367 370.755 46.012 C 371.097 45.670,371.108 45.512,371.056 41.975 L 371.001 38.293 370.521 37.881 L 370.041 37.468 341.094 37.481 C 321.323 37.491,311.984 37.552,311.634 37.675 M49.573 55.582 C 48.457 56.141,48.361 63.416,49.455 64.511 C 49.803 64.858,75.889 65.046,76.426 64.705 C 77.003 64.338,77.160 63.350,77.160 60.078 C 77.160 56.185,77.107 55.844,76.442 55.500 C 75.660 55.096,50.391 55.173,49.573 55.582 M125.976 55.386 C 124.839 55.489,124.815 55.570,124.747 59.494 C 124.683 63.200,124.834 64.364,125.419 64.678 C 125.824 64.894,151.922 64.899,152.491 64.683 C 153.177 64.422,153.295 63.716,153.276 59.983 C 153.255 55.771,153.250 55.748,152.260 55.489 C 151.542 55.300,127.934 55.208,125.976 55.386 M182.754 55.462 C 181.712 55.695,181.667 55.907,181.728 60.253 C 181.778 63.867,181.791 63.989,182.169 64.367 L 182.559 64.756 196.143 64.802 L 209.728 64.848 210.500 63.900 C 211.346 62.862,211.362 62.800,211.637 59.538 C 211.919 56.179,211.890 55.827,211.300 55.522 C 210.703 55.213,184.117 55.157,182.754 55.462 M239.391 55.524 C 238.593 55.860,238.523 56.203,238.478 59.988 C 238.435 63.617,238.551 64.243,239.340 64.666 C 239.886 64.958,288.469 64.906,288.870 64.613 C 289.254 64.333,288.433 60.754,287.695 59.486 C 287.465 59.091,287.153 58.230,287.002 57.573 C 286.626 55.938,286.419 55.673,285.341 55.441 C 283.898 55.132,240.134 55.210,239.391 55.524 M305.707 55.384 C 304.937 55.466,304.681 55.750,304.201 57.055 C 303.993 57.619,303.750 58.169,303.659 58.278 C 303.568 58.388,303.313 59.120,303.093 59.906 C 302.872 60.692,302.530 61.681,302.333 62.104 C 301.860 63.122,301.842 64.420,302.298 64.665 C 302.522 64.784,310.590 64.842,327.200 64.842 L 351.771 64.842 352.062 64.200 C 352.305 63.663,352.352 62.986,352.352 60.051 C 352.352 56.140,352.294 55.748,351.664 55.461 C 351.249 55.272,307.457 55.199,305.707 55.384 M62.799 73.182 C 46.981 73.237,48.724 72.574,48.799 78.510 L 48.845 82.167 49.441 82.486 C 50.398 82.999,75.761 82.980,76.604 82.466 L 77.160 82.127 77.160 78.352 C 77.160 75.337,77.108 74.477,76.904 74.082 C 76.659 73.609,75.985 73.008,75.796 73.096 C 75.746 73.118,69.898 73.157,62.799 73.182 M239.725 73.250 C 239.566 73.311,239.217 73.592,238.950 73.874 L 238.464 74.388 238.470 78.204 C 238.476 81.983,238.480 82.024,238.870 82.324 C 239.509 82.815,239.723 82.822,253.318 82.770 C 268.721 82.711,267.066 83.016,267.066 80.234 C 267.066 77.763,267.348 76.578,267.686 77.630 C 267.982 78.550,268.204 78.973,268.719 79.588 C 269.038 79.970,269.410 80.699,269.561 81.239 C 270.050 82.983,267.169 82.806,295.100 82.802 C 309.567 82.799,319.956 82.732,320.359 82.639 C 321.249 82.433,321.547 82.038,321.806 80.723 C 322.369 77.862,323.588 77.839,323.826 80.685 C 324.012 82.921,322.559 82.712,338.285 82.766 L 351.592 82.812 352.015 82.389 L 352.438 81.966 352.435 78.323 C 352.432 74.855,352.414 74.646,352.045 73.995 L 351.657 73.311 325.505 73.267 L 299.353 73.224 298.548 74.037 C 297.817 74.775,297.706 74.997,297.355 76.432 C 296.453 80.121,294.784 81.098,294.274 78.236 C 294.097 77.244,293.719 76.268,292.672 74.100 C 292.228 73.180,293.748 73.232,265.891 73.184 C 251.658 73.159,239.884 73.189,239.725 73.250 M125.473 73.356 C 124.831 73.780,124.722 74.506,124.722 78.337 L 124.722 82.097 125.173 82.451 L 125.624 82.806 161.144 82.798 C 180.680 82.794,196.982 82.729,197.371 82.654 C 198.495 82.436,200.342 80.923,202.513 78.443 C 203.583 77.220,204.726 75.923,205.052 75.562 C 205.664 74.884,205.768 74.423,205.479 73.664 L 205.312 73.225 165.488 73.228 C 143.584 73.229,125.577 73.287,125.473 73.356 M49.325 91.944 L 48.845 92.357 48.845 96.020 L 48.845 99.683 49.324 100.312 L 49.804 100.941 63.052 100.941 L 76.300 100.941 76.739 100.276 L 77.179 99.612 77.127 95.898 C 77.075 92.231,77.069 92.181,76.671 91.858 C 76.281 91.543,75.804 91.531,63.036 91.531 L 49.805 91.531 49.325 91.944 M125.213 91.857 C 124.682 92.286,124.475 98.821,124.956 99.972 C 125.384 100.996,123.139 100.945,165.752 100.899 L 205.389 100.855 205.440 100.078 C 205.486 99.376,205.423 99.227,204.795 98.538 C 204.413 98.119,203.868 97.506,203.583 97.177 C 202.465 95.881,199.302 92.782,198.518 92.216 L 197.690 91.617 161.655 91.572 C 126.342 91.529,125.611 91.535,125.213 91.857 M239.227 91.738 C 238.634 92.024,238.513 92.746,238.470 96.263 L 238.430 99.541 238.898 100.154 C 239.542 100.999,238.693 100.955,253.201 100.903 L 266.282 100.855 266.674 100.274 C 267.304 99.340,267.281 92.586,266.646 91.951 L 266.226 91.531 252.916 91.543 C 243.828 91.551,239.486 91.613,239.227 91.738 M273.867 91.800 C 273.322 92.096,273.306 92.211,273.654 93.343 C 273.796 93.805,274.029 94.678,274.172 95.282 C 274.315 95.887,274.576 96.618,274.753 96.907 C 274.929 97.197,275.235 97.980,275.432 98.647 C 275.804 99.909,276.021 100.200,276.938 100.664 C 277.432 100.914,279.245 100.941,295.682 100.941 L 313.878 100.941 314.746 100.128 C 315.556 99.369,315.631 99.228,315.885 97.975 C 316.035 97.237,316.275 96.409,316.419 96.135 C 316.563 95.861,316.793 95.425,316.930 95.165 C 317.465 94.149,317.621 92.184,317.194 91.839 C 316.659 91.406,274.662 91.369,273.867 91.800 M324.606 91.864 C 323.952 92.263,323.914 92.480,323.806 96.414 C 323.720 99.533,323.826 99.992,324.766 100.573 L 325.361 100.941 338.523 100.941 L 351.685 100.941 352.062 100.167 C 352.728 98.795,352.548 92.285,351.829 91.759 C 351.248 91.334,325.311 91.434,324.606 91.864 M49.274 110.205 L 48.760 110.915 48.760 114.556 L 48.760 118.196 49.210 118.550 C 49.836 119.042,75.993 119.117,76.738 118.629 L 77.160 118.352 77.160 114.561 C 77.160 110.583,77.120 110.346,76.332 109.709 C 76.126 109.542,73.185 109.495,62.928 109.495 L 49.788 109.495 49.274 110.205 M125.781 109.617 C 124.862 109.793,124.723 110.435,124.723 114.500 C 124.722 118.007,124.742 118.241,125.068 118.567 C 125.516 119.014,152.472 119.032,153.011 118.585 C 153.258 118.379,153.293 117.875,153.293 114.544 C 153.293 110.245,153.234 110.027,151.960 109.673 C 151.342 109.502,126.663 109.449,125.781 109.617 M182.785 109.741 C 181.733 110.199,181.694 110.373,181.694 114.559 C 181.694 117.876,181.729 118.379,181.977 118.585 C 182.210 118.779,184.765 118.828,196.714 118.866 C 212.978 118.918,212.123 118.982,211.907 117.733 C 211.848 117.390,211.721 116.031,211.626 114.713 C 211.416 111.803,211.285 111.367,210.303 110.317 L 209.534 109.495 196.427 109.502 C 185.769 109.507,183.219 109.552,182.785 109.741 M239.148 110.150 L 238.445 110.806 238.474 114.470 L 238.504 118.135 238.936 118.520 L 239.369 118.905 252.837 118.905 C 264.750 118.905,266.349 118.874,266.686 118.639 C 267.199 118.279,267.285 111.098,266.784 110.346 C 266.191 109.455,266.856 109.495,252.912 109.495 L 239.850 109.495 239.148 110.150 M280.033 109.880 C 279.457 110.780,279.587 111.806,280.505 113.618 C 280.728 114.059,281.041 114.947,281.200 115.593 C 281.553 117.027,282.156 118.277,282.670 118.637 C 283.291 119.072,308.124 119.042,308.508 118.606 C 309.064 117.972,309.856 116.166,310.109 114.955 C 310.254 114.260,310.592 113.305,310.861 112.833 C 311.512 111.689,311.643 110.909,311.314 110.122 L 311.053 109.495 295.666 109.495 L 280.279 109.495 280.033 109.880 M325.150 109.658 C 324.962 109.735,324.596 109.996,324.337 110.238 L 323.867 110.677 323.869 114.406 C 323.871 116.457,323.930 118.227,324.001 118.338 C 324.340 118.872,325.192 118.905,338.408 118.905 L 351.729 118.905 352.083 118.454 C 352.980 117.315,352.489 109.985,351.490 109.602 C 351.072 109.441,325.544 109.495,325.150 109.658 M30.425 127.892 L 29.970 128.139 29.906 131.863 C 29.840 135.739,29.893 136.122,30.579 136.743 C 30.913 137.045,94.580 137.238,95.360 136.939 C 96.187 136.621,96.322 135.935,96.322 132.028 L 96.322 128.340 95.871 127.985 L 95.420 127.630 63.151 127.637 C 35.327 127.643,30.818 127.678,30.425 127.892 M106.169 128.010 C 105.720 128.652,105.781 135.726,106.242 136.483 L 106.581 137.038 156.498 137.082 L 206.416 137.126 207.284 136.742 C 208.180 136.347,208.372 136.108,208.806 134.848 C 208.946 134.441,209.217 133.889,209.409 133.620 C 209.601 133.351,209.907 132.528,210.091 131.792 C 210.274 131.056,210.582 129.995,210.775 129.434 L 211.126 128.416 210.777 128.066 L 210.427 127.716 158.432 127.672 L 106.436 127.629 106.169 128.010 M220.145 127.992 L 219.675 128.343 219.675 132.095 L 219.675 135.848 220.231 136.448 L 220.787 137.049 243.285 137.046 C 255.659 137.044,265.911 137.042,266.068 137.041 C 267.111 137.038,267.672 128.892,266.691 127.979 C 266.098 127.427,220.886 127.440,220.145 127.992 M285.814 128.015 C 285.500 128.499,285.732 129.774,286.322 130.796 C 286.539 131.172,286.878 132.134,287.075 132.934 C 287.470 134.532,288.077 135.844,288.758 136.570 L 289.200 137.040 295.546 137.040 C 302.609 137.040,302.451 137.065,302.833 135.885 C 302.947 135.532,303.214 134.897,303.425 134.474 C 303.637 134.050,304.009 132.954,304.253 132.038 C 304.496 131.122,304.852 130.067,305.042 129.693 C 306.113 127.594,306.285 127.630,295.288 127.630 L 286.064 127.630 285.814 128.015 M324.631 127.793 C 323.915 128.083,323.878 128.284,323.853 132.108 C 323.826 136.096,323.872 136.344,324.726 136.786 C 325.335 137.101,369.325 137.181,370.147 136.868 C 370.988 136.549,371.117 135.843,371.056 131.869 C 371.002 128.339,370.995 128.279,370.597 127.957 C 370.164 127.607,325.483 127.448,324.631 127.793 M31.052 145.756 C 30.058 146.163,30.026 146.318,30.026 150.702 L 30.026 154.748 30.624 155.047 C 31.188 155.328,33.097 155.346,63.148 155.346 L 95.073 155.346 95.655 154.955 L 96.236 154.563 96.282 150.893 C 96.332 146.965,96.263 146.527,95.506 145.931 C 95.051 145.573,31.918 145.402,31.052 145.756 M106.901 145.716 C 106.027 145.850,105.902 146.480,105.902 150.769 C 105.902 154.456,105.917 154.622,106.263 154.935 C 106.614 155.253,107.466 155.261,142.918 155.261 C 182.036 155.261,181.904 155.264,184.598 154.376 C 185.302 154.144,186.457 153.837,187.164 153.694 C 187.872 153.551,188.837 153.223,189.307 152.965 C 189.778 152.706,190.586 152.361,191.104 152.196 C 191.621 152.031,192.391 151.683,192.814 151.423 C 193.238 151.162,193.854 150.849,194.183 150.728 C 194.512 150.606,195.051 150.299,195.381 150.046 C 195.710 149.792,196.172 149.486,196.407 149.365 C 196.642 149.244,197.039 148.956,197.288 148.723 C 197.537 148.491,198.113 148.058,198.568 147.760 C 199.426 147.199,199.855 146.202,199.425 145.772 C 199.254 145.602,108.007 145.546,106.901 145.716 M220.339 146.259 L 219.675 146.923 219.675 150.789 L 219.675 154.655 220.352 155.001 C 221.341 155.505,265.376 155.549,266.382 155.047 L 266.980 154.748 267.026 150.931 C 267.077 146.757,266.975 146.184,266.109 145.789 C 265.796 145.647,259.683 145.595,243.342 145.595 L 221.003 145.595 220.339 146.259 M293.017 145.768 C 292.038 146.062,291.741 146.851,292.291 147.696 C 292.427 147.905,292.696 148.802,292.890 149.691 C 293.103 150.672,293.409 151.548,293.668 151.922 C 293.903 152.261,294.184 152.997,294.293 153.557 C 294.553 154.895,294.697 155.061,295.509 154.952 C 296.441 154.827,296.585 154.647,297.006 153.073 C 297.212 152.300,297.604 151.157,297.875 150.533 C 299.027 147.888,299.105 146.246,298.098 145.788 C 297.607 145.564,293.747 145.549,293.017 145.768 M324.856 145.943 C 324.506 146.129,324.150 146.416,324.065 146.580 C 323.885 146.929,323.724 152.645,323.859 153.888 C 324.032 155.470,322.212 155.362,347.919 155.308 L 370.222 155.261 370.611 154.872 C 371.518 153.966,371.214 146.297,370.252 145.818 C 369.541 145.464,325.529 145.585,324.856 145.943 " stroke="none" fill="#ffffff" fill-rule="evenodd"></path></g></svg>