<svg id="svg" version="1.1" width="400" height="106.80100755667506" viewBox="0 0 400 106.80100755667506" xmlns="http://www.w3.org/2000/svg" xmlns:xlink="http://www.w3.org/1999/xlink" ><g id="svgg"><path id="path0" d="M316.465 5.583 C 316.034 5.813,315.577 6.000,315.448 6.000 C 315.319 6.000,314.772 6.217,314.232 6.483 C 313.692 6.748,312.650 7.239,311.917 7.573 C 311.183 7.907,310.283 8.338,309.917 8.532 C 309.550 8.726,307.150 9.951,304.583 11.256 C 297.933 14.636,296.976 15.150,295.417 16.177 C 294.867 16.540,294.106 16.979,293.727 17.154 C 293.347 17.329,292.990 17.549,292.932 17.642 C 292.874 17.735,292.418 17.965,291.919 18.152 C 291.419 18.339,290.368 18.906,289.583 19.412 C 288.797 19.919,288.108 20.333,288.052 20.333 C 287.995 20.333,287.702 20.521,287.402 20.750 C 287.101 20.979,286.811 21.167,286.757 21.167 C 286.703 21.167,286.277 21.429,285.811 21.750 C 285.344 22.071,284.868 22.333,284.752 22.333 C 284.636 22.333,284.441 22.453,284.319 22.600 C 283.989 22.998,282.426 23.982,280.906 24.750 C 280.167 25.123,279.101 25.780,278.536 26.209 C 277.972 26.638,277.227 27.177,276.880 27.406 C 276.534 27.635,275.950 28.047,275.583 28.322 C 275.217 28.597,274.617 28.985,274.250 29.184 C 273.883 29.384,273.396 29.691,273.167 29.866 C 272.938 30.042,272.150 30.579,271.417 31.059 C 270.683 31.539,269.460 32.379,268.699 32.924 C 267.937 33.470,267.055 34.073,266.738 34.263 C 266.421 34.454,266.069 34.722,265.956 34.860 C 265.672 35.204,263.364 36.893,262.737 37.215 C 262.455 37.360,261.673 37.859,260.999 38.323 C 260.325 38.787,259.697 39.167,259.603 39.167 C 259.423 39.167,256.660 37.331,256.083 36.829 C 255.900 36.670,255.525 36.422,255.250 36.280 C 254.975 36.138,254.288 35.623,253.724 35.135 C 249.964 31.891,251.020 32.169,242.418 32.161 C 235.217 32.155,234.330 32.198,234.337 32.560 C 234.344 32.912,237.273 35.545,238.917 36.676 C 239.375 36.992,240.838 38.174,242.167 39.305 C 243.496 40.435,244.833 41.560,245.137 41.805 C 245.442 42.050,245.927 42.456,246.216 42.708 C 246.505 42.960,246.793 43.167,246.858 43.167 C 247.031 43.167,249.891 45.645,250.055 45.938 C 250.397 46.549,249.450 47.566,246.426 49.833 C 245.612 50.444,243.119 52.513,242.636 52.979 C 242.296 53.307,240.580 54.784,238.000 56.970 C 236.946 57.863,235.435 59.229,234.643 60.005 C 233.852 60.781,232.844 61.679,232.405 62.000 C 231.966 62.321,230.626 63.561,229.428 64.757 C 228.230 65.952,226.762 67.332,226.167 67.822 C 225.127 68.678,224.129 69.661,221.574 72.347 C 220.927 73.027,219.836 74.108,219.150 74.750 C 218.463 75.392,217.386 76.517,216.755 77.250 C 216.124 77.983,214.959 79.221,214.166 80.000 C 211.129 82.983,208.999 85.727,208.676 87.074 C 208.568 87.527,208.342 88.202,208.174 88.574 C 208.006 88.946,207.779 89.689,207.669 90.225 C 207.559 90.761,207.290 91.586,207.070 92.058 C 206.850 92.530,206.669 93.180,206.668 93.502 C 206.667 93.825,206.517 94.368,206.333 94.710 C 206.150 95.052,206.000 95.602,206.000 95.931 L 206.000 96.530 206.542 96.104 C 207.462 95.381,208.201 94.738,209.500 93.528 C 210.188 92.888,210.975 92.160,211.250 91.910 C 211.525 91.661,212.241 90.998,212.842 90.437 C 215.427 88.020,218.297 85.447,220.577 83.500 C 221.274 82.904,222.309 81.985,222.875 81.458 C 223.442 80.931,223.957 80.500,224.021 80.500 C 224.084 80.500,224.912 79.852,225.860 79.061 C 226.808 78.269,227.758 77.506,227.972 77.366 C 228.186 77.225,228.711 76.768,229.139 76.348 C 229.987 75.517,230.332 75.250,232.083 74.063 C 232.725 73.628,233.963 72.664,234.833 71.920 C 235.704 71.177,236.604 70.440,236.833 70.283 C 237.063 70.126,237.588 69.737,238.000 69.420 C 238.412 69.102,239.313 68.470,240.000 68.016 C 240.688 67.561,241.438 67.033,241.667 66.842 C 242.680 65.996,243.295 65.535,244.343 64.833 C 244.960 64.421,246.172 63.541,247.036 62.879 C 247.900 62.217,248.867 61.566,249.185 61.433 C 249.876 61.144,250.873 60.482,253.000 58.898 C 253.871 58.249,254.771 57.613,255.000 57.484 C 255.229 57.355,255.588 57.103,255.798 56.924 C 256.502 56.320,259.910 54.500,260.335 54.500 C 260.454 54.500,260.784 54.676,261.068 54.892 C 261.351 55.108,261.808 55.401,262.083 55.545 C 262.759 55.898,263.954 56.899,266.765 59.469 C 268.390 60.953,268.355 60.926,269.000 61.251 C 269.682 61.596,270.370 62.149,271.753 63.463 C 273.189 64.829,275.410 66.498,276.027 66.675 C 276.740 66.879,293.485 66.853,293.869 66.647 C 294.542 66.287,294.104 65.738,291.787 64.039 C 291.217 63.620,290.337 62.925,289.833 62.493 C 289.329 62.062,288.739 61.617,288.522 61.505 C 288.305 61.392,287.680 60.952,287.133 60.525 C 286.586 60.099,285.947 59.624,285.712 59.471 C 285.477 59.317,284.902 58.852,284.434 58.436 C 282.870 57.046,280.818 55.500,280.537 55.500 C 280.356 55.500,278.838 54.344,277.613 53.274 C 277.047 52.780,275.608 51.659,274.417 50.784 C 270.296 47.760,270.259 47.983,275.333 45.213 C 275.746 44.988,276.533 44.552,277.083 44.245 C 277.633 43.938,278.346 43.559,278.667 43.404 C 280.990 42.279,282.066 41.734,283.083 41.168 C 283.725 40.810,285.544 39.870,287.125 39.077 C 288.706 38.284,290.040 37.570,290.090 37.489 C 290.140 37.408,290.496 37.263,290.882 37.166 C 291.268 37.070,291.786 36.878,292.033 36.741 C 292.281 36.604,292.768 36.390,293.116 36.266 C 293.691 36.062,296.161 34.917,298.750 33.654 C 299.300 33.386,299.811 33.167,299.885 33.167 C 299.960 33.167,300.448 32.969,300.969 32.727 C 301.490 32.486,302.367 32.079,302.917 31.824 C 303.467 31.568,304.779 31.084,305.833 30.749 C 306.887 30.413,308.200 29.926,308.750 29.665 C 309.300 29.404,310.012 29.139,310.333 29.076 C 311.339 28.878,311.743 28.274,312.351 26.059 C 312.547 25.345,312.804 24.608,312.922 24.422 C 313.040 24.236,313.224 23.647,313.332 23.115 C 313.440 22.582,313.665 21.832,313.832 21.448 C 313.999 21.064,314.220 20.199,314.322 19.526 C 314.424 18.852,314.618 18.088,314.753 17.827 C 314.888 17.566,315.146 16.719,315.327 15.944 C 315.508 15.169,315.764 14.283,315.895 13.976 C 316.299 13.034,317.003 10.818,317.318 9.494 C 317.482 8.803,317.717 8.053,317.838 7.827 C 318.984 5.706,318.308 4.602,316.465 5.583 M386.177 29.002 C 385.403 29.275,384.574 29.686,384.334 29.916 C 384.095 30.145,383.831 30.333,383.748 30.333 C 383.352 30.333,382.000 32.023,382.000 32.518 C 382.000 32.798,381.845 33.635,381.655 34.378 C 381.331 35.648,381.327 35.764,381.582 36.329 C 381.731 36.660,381.910 37.351,381.979 37.865 C 382.101 38.762,382.303 39.092,383.326 40.062 C 383.435 40.165,383.687 40.408,383.887 40.602 C 384.087 40.796,384.788 41.236,385.447 41.580 L 386.643 42.205 388.363 42.129 C 390.826 42.020,393.367 40.399,393.843 38.632 C 393.937 38.282,394.177 37.720,394.375 37.383 C 394.880 36.528,394.867 33.820,394.356 33.271 C 394.175 33.076,393.973 32.627,393.908 32.272 C 393.771 31.532,392.978 30.543,392.407 30.399 C 392.193 30.346,391.901 30.124,391.759 29.907 C 391.607 29.675,391.210 29.436,390.792 29.326 C 390.402 29.224,389.908 29.027,389.693 28.890 C 388.960 28.419,387.715 28.459,386.177 29.002 M390.133 30.153 C 390.886 30.298,390.910 30.315,392.278 31.622 C 392.863 32.181,393.197 32.661,393.321 33.120 C 393.421 33.491,393.614 33.887,393.751 34.001 C 394.567 34.678,393.528 38.111,392.211 39.089 C 391.866 39.346,391.433 39.719,391.250 39.918 C 389.393 41.934,385.831 41.235,383.312 38.361 C 381.786 36.621,382.567 31.872,384.513 31.054 C 384.788 30.938,385.125 30.732,385.262 30.595 C 385.399 30.458,385.790 30.301,386.130 30.245 C 386.471 30.190,386.863 30.121,387.000 30.092 C 387.518 29.982,389.444 30.020,390.133 30.153 M352.272 31.332 C 351.093 31.410,349.630 31.590,349.022 31.732 C 348.414 31.874,347.108 32.105,346.119 32.245 C 345.131 32.385,344.059 32.610,343.736 32.745 C 343.414 32.880,342.584 33.107,341.892 33.250 C 341.201 33.393,340.361 33.648,340.026 33.817 C 339.691 33.986,338.995 34.246,338.480 34.394 C 337.965 34.542,337.454 34.772,337.344 34.904 C 337.234 35.037,336.905 35.195,336.613 35.256 C 336.105 35.362,335.436 35.732,333.549 36.949 C 330.163 39.132,328.644 43.369,330.392 45.758 C 331.708 47.558,333.858 49.004,335.589 49.256 C 336.044 49.322,336.894 49.554,337.478 49.771 C 338.062 49.989,339.021 50.244,339.610 50.338 C 340.199 50.432,340.996 50.615,341.382 50.746 C 341.768 50.876,343.058 51.135,344.250 51.321 C 345.442 51.507,346.904 51.770,347.500 51.906 C 348.096 52.042,349.296 52.238,350.167 52.342 C 351.037 52.446,351.996 52.634,352.297 52.759 C 352.597 52.885,353.310 53.070,353.880 53.172 C 354.450 53.273,355.386 53.576,355.959 53.845 C 356.532 54.114,357.057 54.335,357.125 54.336 C 357.194 54.338,357.606 54.673,358.042 55.082 C 360.670 57.547,356.734 61.065,350.833 61.523 C 349.779 61.605,348.191 61.744,347.304 61.833 C 346.241 61.939,344.934 61.936,343.470 61.823 C 342.249 61.729,340.462 61.593,339.500 61.520 C 338.316 61.431,337.508 61.277,337.000 61.044 C 336.587 60.854,335.927 60.613,335.532 60.507 C 335.137 60.402,334.277 59.944,333.621 59.491 C 332.256 58.547,332.005 58.510,330.864 59.083 C 330.408 59.313,329.947 59.500,329.840 59.500 C 329.652 59.500,328.505 60.004,326.417 61.004 C 325.867 61.268,325.117 61.534,324.750 61.596 C 324.151 61.698,322.000 62.748,322.000 62.939 C 322.000 63.357,324.812 64.899,326.484 65.397 C 326.906 65.523,327.550 65.753,327.917 65.908 C 328.283 66.064,329.258 66.299,330.083 66.432 C 330.908 66.565,331.921 66.787,332.333 66.926 C 335.071 67.848,350.524 67.793,354.583 66.846 C 355.317 66.675,356.329 66.481,356.833 66.415 C 357.337 66.349,358.125 66.151,358.583 65.975 C 359.042 65.799,359.927 65.545,360.552 65.411 C 361.176 65.277,362.083 64.980,362.568 64.750 C 363.052 64.521,363.524 64.333,363.616 64.333 C 364.309 64.333,368.906 61.563,369.840 60.583 C 370.572 59.815,371.832 58.007,371.833 57.725 C 371.833 57.619,372.020 57.132,372.248 56.642 C 373.479 53.999,371.001 50.098,367.611 49.339 C 367.167 49.240,366.530 49.021,366.194 48.852 C 365.858 48.683,365.058 48.450,364.417 48.334 C 363.775 48.217,363.040 48.016,362.784 47.886 C 362.528 47.757,361.441 47.505,360.368 47.327 C 359.295 47.149,358.056 46.892,357.615 46.757 C 357.174 46.621,356.124 46.439,355.282 46.353 C 354.439 46.267,353.150 46.044,352.417 45.859 C 351.683 45.674,350.507 45.443,349.803 45.348 C 349.099 45.252,348.237 45.063,347.887 44.928 C 347.536 44.794,346.912 44.597,346.500 44.492 C 341.732 43.274,342.387 39.464,347.656 37.761 C 351.334 36.572,361.683 36.580,364.248 37.774 C 364.707 37.988,365.204 38.164,365.352 38.165 C 365.499 38.166,366.041 38.392,366.557 38.667 C 367.072 38.942,367.684 39.167,367.917 39.167 C 368.149 39.167,368.761 38.942,369.277 38.667 C 369.792 38.392,370.343 38.167,370.500 38.167 C 370.658 38.167,371.068 37.976,371.413 37.742 C 371.757 37.508,372.274 37.275,372.561 37.223 C 373.056 37.135,375.130 36.306,375.667 35.983 C 375.804 35.900,376.272 35.626,376.706 35.374 C 377.739 34.775,377.714 34.692,376.290 33.979 C 374.063 32.865,372.025 32.312,367.083 31.481 C 365.874 31.278,354.791 31.167,352.272 31.332 M132.583 31.437 C 132.308 31.475,131.221 31.653,130.167 31.834 C 129.112 32.014,127.668 32.237,126.956 32.330 C 126.245 32.422,125.382 32.615,125.040 32.759 C 124.697 32.902,123.892 33.128,123.250 33.259 C 121.104 33.698,116.263 35.774,114.853 36.861 C 113.647 37.789,112.883 37.108,113.405 35.573 C 113.622 34.937,113.849 33.994,113.909 33.478 L 114.019 32.539 113.485 32.353 C 112.813 32.119,102.876 32.095,102.268 32.327 C 101.664 32.556,101.169 33.655,100.891 35.386 C 100.758 36.209,100.536 37.103,100.396 37.373 C 100.257 37.643,100.037 38.368,99.909 38.985 C 99.780 39.601,99.530 40.438,99.353 40.844 C 99.176 41.251,98.941 42.033,98.830 42.583 C 98.719 43.133,98.496 43.846,98.335 44.167 C 98.175 44.487,97.953 45.275,97.843 45.917 C 97.734 46.558,97.495 47.420,97.314 47.831 C 97.132 48.243,96.909 48.918,96.817 49.331 C 96.726 49.745,96.476 50.533,96.261 51.083 C 96.046 51.633,95.819 52.447,95.756 52.890 C 95.693 53.334,95.500 54.029,95.326 54.433 C 95.153 54.838,94.902 55.787,94.768 56.543 C 94.634 57.298,94.403 58.205,94.254 58.556 C 94.105 58.908,93.905 59.621,93.809 60.140 C 93.713 60.659,93.455 61.512,93.234 62.037 C 93.014 62.561,92.833 63.186,92.833 63.425 C 92.833 63.664,92.642 64.339,92.408 64.924 C 91.642 66.839,91.905 66.909,99.529 66.808 C 104.596 66.742,104.511 66.766,104.822 65.312 C 104.919 64.860,105.108 64.323,105.242 64.118 C 105.377 63.913,105.606 63.229,105.753 62.598 C 105.899 61.966,106.161 61.172,106.334 60.832 C 106.507 60.493,106.695 59.810,106.751 59.316 C 106.850 58.456,107.332 56.739,108.339 53.667 C 108.595 52.887,108.857 51.987,108.922 51.667 C 108.987 51.346,109.175 50.817,109.340 50.492 C 109.504 50.167,109.694 49.609,109.760 49.253 C 109.951 48.237,111.009 46.290,112.174 44.810 C 113.163 43.555,113.645 43.132,115.091 42.244 C 115.395 42.058,115.781 41.782,115.948 41.630 C 116.468 41.160,120.255 39.352,121.107 39.167 C 121.552 39.071,122.254 38.852,122.667 38.680 C 123.079 38.509,123.904 38.316,124.500 38.253 C 125.096 38.190,126.258 37.982,127.083 37.793 C 129.194 37.307,135.798 37.174,137.667 37.578 C 138.354 37.727,139.629 37.993,140.500 38.170 C 143.437 38.765,145.404 40.134,146.565 42.392 C 147.276 43.775,147.322 44.740,146.742 46.129 C 146.603 46.461,146.373 47.297,146.230 47.986 C 146.088 48.674,145.865 49.444,145.735 49.696 C 145.605 49.947,145.384 50.663,145.243 51.285 C 145.103 51.907,144.844 52.792,144.667 53.250 C 144.490 53.708,144.230 54.595,144.089 55.220 C 143.948 55.845,143.759 56.494,143.669 56.662 C 143.579 56.830,143.388 57.698,143.244 58.592 C 143.101 59.485,142.875 60.425,142.742 60.682 C 142.610 60.938,142.351 61.793,142.167 62.583 C 141.982 63.373,141.719 64.237,141.582 64.503 C 141.245 65.154,141.214 66.285,141.523 66.595 C 141.725 66.797,142.748 66.856,147.343 66.932 C 153.692 67.037,153.616 67.050,153.961 65.830 C 154.077 65.419,154.359 64.521,154.587 63.833 C 154.815 63.146,155.079 62.154,155.175 61.629 C 155.271 61.103,155.487 60.353,155.655 59.962 C 155.824 59.570,156.012 58.780,156.073 58.205 C 156.134 57.631,156.362 56.688,156.579 56.111 C 156.797 55.533,157.061 54.582,157.167 53.998 C 157.273 53.413,157.498 52.664,157.667 52.333 C 157.835 52.003,158.057 51.271,158.159 50.707 C 158.262 50.143,158.497 49.339,158.683 48.919 C 158.868 48.500,159.094 47.700,159.184 47.141 C 159.274 46.583,159.488 45.851,159.659 45.514 C 161.396 42.110,159.990 37.236,156.708 35.289 C 156.410 35.112,156.167 34.907,156.167 34.835 C 156.167 34.640,153.513 33.370,152.833 33.240 C 152.512 33.179,151.837 32.959,151.333 32.751 C 150.829 32.544,149.967 32.321,149.417 32.255 C 148.867 32.190,147.817 31.983,147.083 31.794 C 145.809 31.466,134.417 31.186,132.583 31.437 M194.417 31.439 C 193.958 31.473,192.608 31.648,191.417 31.828 C 190.225 32.008,188.444 32.237,187.458 32.335 C 186.473 32.434,185.350 32.627,184.963 32.763 C 184.576 32.900,183.559 33.124,182.704 33.262 C 181.849 33.399,180.797 33.649,180.366 33.817 C 179.936 33.986,179.066 34.212,178.434 34.321 C 177.801 34.429,176.998 34.664,176.648 34.843 C 176.297 35.022,175.637 35.248,175.181 35.346 C 174.366 35.521,173.000 36.346,173.000 36.663 C 173.000 36.752,173.241 36.949,173.535 37.102 C 173.830 37.254,174.210 37.556,174.381 37.773 C 174.551 37.989,174.782 38.167,174.893 38.167 C 175.004 38.167,175.505 38.423,176.006 38.736 C 176.507 39.049,177.243 39.510,177.641 39.760 C 178.612 40.369,179.770 40.379,181.017 39.789 C 181.512 39.555,182.217 39.310,182.583 39.244 C 182.950 39.178,183.662 38.953,184.167 38.745 C 184.671 38.536,185.503 38.288,186.016 38.193 C 186.529 38.098,187.392 37.873,187.933 37.692 C 192.077 36.305,207.060 36.458,210.218 37.918 C 214.284 39.799,215.668 41.847,214.600 44.402 C 214.227 45.295,214.377 45.282,203.250 45.393 C 195.622 45.470,192.437 45.561,191.083 45.741 C 190.075 45.876,187.975 46.108,186.417 46.257 C 184.858 46.407,183.096 46.636,182.500 46.766 C 181.904 46.897,180.742 47.116,179.917 47.254 C 179.092 47.392,177.929 47.655,177.333 47.839 C 176.737 48.024,175.856 48.246,175.375 48.333 C 174.894 48.420,174.272 48.609,173.993 48.754 C 173.714 48.898,172.829 49.156,172.025 49.328 C 171.221 49.500,170.306 49.788,169.990 49.970 C 169.675 50.151,169.240 50.352,169.023 50.417 C 168.369 50.612,165.475 52.744,164.540 53.720 C 160.524 57.909,161.391 61.894,166.917 64.645 C 169.283 65.822,170.194 66.168,171.400 66.347 C 172.051 66.443,173.011 66.665,173.533 66.841 C 176.431 67.815,191.273 67.855,195.333 66.899 C 195.929 66.759,197.081 66.535,197.893 66.402 C 198.704 66.269,199.509 66.084,199.680 65.993 C 199.852 65.901,200.650 65.648,201.454 65.430 C 203.128 64.976,204.649 64.359,207.061 63.155 C 210.579 61.399,210.725 61.466,209.908 64.448 C 209.636 65.442,209.656 65.982,209.985 66.488 C 210.158 66.754,210.901 66.779,216.676 66.708 C 221.045 66.655,220.745 66.904,221.523 62.694 C 221.698 61.746,221.983 60.693,222.157 60.353 C 222.330 60.013,222.559 59.101,222.665 58.326 C 222.771 57.551,222.995 56.579,223.162 56.167 C 223.329 55.754,223.555 54.981,223.664 54.448 C 223.772 53.915,223.999 53.165,224.168 52.781 C 224.336 52.397,224.561 51.600,224.667 51.009 C 224.773 50.418,224.995 49.668,225.160 49.342 C 225.324 49.017,225.509 48.487,225.569 48.167 C 225.629 47.846,225.895 46.871,226.159 46.000 C 227.660 41.063,227.717 40.473,226.870 38.659 C 226.155 37.127,223.426 34.863,221.524 34.224 C 221.098 34.081,220.670 33.899,220.572 33.820 C 220.474 33.741,219.799 33.533,219.072 33.359 C 218.345 33.185,217.458 32.920,217.101 32.770 C 216.745 32.620,215.565 32.382,214.480 32.241 C 213.394 32.099,211.999 31.865,211.378 31.720 C 210.301 31.468,197.025 31.248,194.417 31.439 M386.056 31.527 C 385.436 32.317,385.379 38.120,385.985 38.726 C 386.485 39.226,386.833 38.846,386.833 37.802 C 386.833 35.956,388.102 35.943,389.057 37.780 C 389.411 38.460,390.089 39.040,390.443 38.967 C 390.907 38.871,390.772 37.886,390.226 37.380 C 389.666 36.861,389.769 36.007,390.481 35.264 C 391.316 34.392,391.261 33.100,390.346 32.119 L 389.691 31.417 387.961 31.361 C 386.663 31.319,386.188 31.360,386.056 31.527 M14.667 32.216 C 14.149 32.477,13.606 33.568,13.261 35.039 C 13.116 35.656,12.853 36.527,12.677 36.974 C 12.501 37.421,12.270 38.262,12.165 38.843 C 12.060 39.424,11.842 40.165,11.681 40.491 C 11.520 40.817,11.292 41.533,11.175 42.083 C 11.057 42.633,10.827 43.348,10.663 43.671 C 10.499 43.994,10.311 44.631,10.245 45.087 C 10.178 45.543,9.950 46.383,9.738 46.952 C 9.526 47.522,9.274 48.556,9.177 49.251 C 9.080 49.946,8.889 50.731,8.751 50.997 C 8.614 51.263,8.356 52.104,8.178 52.865 C 8.000 53.627,7.707 54.587,7.527 55.000 C 7.347 55.413,7.146 56.084,7.080 56.492 C 7.013 56.900,6.812 57.575,6.632 57.992 C 6.452 58.409,6.232 59.198,6.143 59.746 C 6.054 60.294,5.843 60.969,5.674 61.246 C 5.505 61.523,5.253 62.313,5.112 63.000 C 4.972 63.688,4.740 64.475,4.596 64.750 C 3.609 66.642,3.924 66.750,10.430 66.750 C 16.897 66.750,16.746 66.786,17.110 65.152 C 17.220 64.656,17.463 63.800,17.650 63.250 C 18.404 61.029,18.703 60.015,19.026 58.583 C 19.212 57.758,19.498 56.858,19.662 56.583 C 19.825 56.308,20.013 55.785,20.078 55.421 C 20.143 55.057,20.414 54.085,20.681 53.261 C 20.948 52.438,21.167 51.550,21.167 51.290 C 21.167 49.637,22.528 49.458,24.275 50.880 C 24.536 51.093,25.200 51.560,25.750 51.918 C 26.300 52.276,27.252 52.947,27.867 53.409 C 28.481 53.872,29.343 54.460,29.783 54.717 C 32.349 56.216,32.981 56.616,33.891 57.313 C 34.444 57.737,35.212 58.271,35.598 58.500 C 35.983 58.729,36.617 59.142,37.005 59.417 C 37.862 60.024,38.475 60.428,40.667 61.833 C 41.596 62.429,42.670 63.123,43.053 63.376 C 43.436 63.628,43.961 63.966,44.220 64.126 C 44.478 64.286,45.258 64.846,45.954 65.370 C 47.945 66.871,47.645 66.829,56.167 66.801 C 65.695 66.769,65.847 66.718,62.423 64.667 C 62.041 64.438,61.517 64.081,61.258 63.875 C 61.000 63.669,60.721 63.500,60.639 63.500 C 60.558 63.500,59.895 63.092,59.166 62.593 C 58.438 62.094,57.521 61.529,57.129 61.338 C 56.100 60.835,54.914 60.124,54.544 59.790 C 54.368 59.630,54.142 59.500,54.041 59.500 C 53.941 59.500,53.647 59.323,53.388 59.107 C 53.129 58.891,52.692 58.587,52.417 58.432 C 52.142 58.277,51.467 57.819,50.917 57.414 C 50.367 57.009,49.669 56.564,49.365 56.426 C 49.062 56.288,48.612 56.033,48.365 55.860 C 48.119 55.686,47.732 55.486,47.507 55.416 C 47.282 55.346,46.657 54.980,46.118 54.603 C 44.328 53.350,41.950 51.817,41.197 51.430 C 40.892 51.274,40.217 50.823,39.697 50.428 C 39.176 50.033,38.355 49.540,37.873 49.333 C 36.399 48.701,36.418 47.814,37.917 47.258 C 38.467 47.054,39.142 46.769,39.417 46.624 C 40.383 46.115,42.088 45.355,42.500 45.249 C 42.890 45.149,44.817 44.275,45.895 43.708 C 46.159 43.570,46.796 43.323,47.312 43.159 C 48.700 42.718,50.658 41.939,51.414 41.528 C 51.780 41.329,52.140 41.167,52.216 41.167 C 52.361 41.167,53.880 40.484,55.583 39.654 C 56.133 39.386,56.651 39.167,56.733 39.167 C 56.815 39.167,57.340 38.948,57.900 38.681 C 59.657 37.841,61.228 37.201,61.833 37.077 C 62.154 37.012,62.679 36.823,63.000 36.657 C 64.294 35.989,66.160 35.167,66.383 35.167 C 66.513 35.167,67.024 34.953,67.518 34.692 C 68.012 34.430,68.642 34.162,68.917 34.095 C 69.192 34.029,69.642 33.804,69.917 33.596 C 70.192 33.388,70.717 33.122,71.083 33.005 C 73.244 32.318,71.981 32.137,64.331 32.041 C 57.134 31.950,56.412 32.003,55.000 32.732 C 54.587 32.945,53.950 33.215,53.583 33.333 C 53.217 33.450,52.714 33.689,52.466 33.863 C 52.218 34.037,51.768 34.263,51.466 34.365 C 51.164 34.467,50.729 34.680,50.500 34.837 C 50.271 34.994,49.896 35.174,49.667 35.236 C 49.244 35.351,48.060 35.850,46.250 36.677 C 45.700 36.928,44.919 37.222,44.515 37.330 C 44.111 37.439,43.622 37.631,43.429 37.757 C 43.236 37.884,42.742 38.106,42.331 38.250 C 41.920 38.395,40.756 38.923,39.745 39.423 C 38.735 39.924,37.840 40.333,37.758 40.333 C 37.676 40.333,37.040 40.602,36.346 40.931 C 33.791 42.140,33.395 42.325,32.333 42.809 C 31.738 43.081,30.950 43.355,30.583 43.420 C 30.217 43.484,29.654 43.707,29.333 43.916 C 29.012 44.124,28.534 44.345,28.270 44.406 C 28.006 44.467,27.520 44.701,27.190 44.925 C 26.860 45.150,26.467 45.333,26.318 45.333 C 26.169 45.333,25.625 45.558,25.110 45.833 C 23.522 46.681,22.185 46.431,22.721 45.387 C 22.853 45.128,23.052 44.467,23.163 43.917 C 23.273 43.367,23.474 42.744,23.608 42.533 C 23.743 42.321,23.960 41.588,24.091 40.903 C 24.222 40.218,24.456 39.416,24.610 39.120 C 24.764 38.825,25.023 38.058,25.185 37.417 C 25.347 36.775,25.633 35.825,25.820 35.306 C 26.353 33.829,26.359 32.492,25.833 32.220 C 25.241 31.914,15.270 31.910,14.667 32.216 M79.399 32.180 C 78.824 32.347,78.511 33.040,77.753 35.833 C 77.542 36.612,77.247 37.530,77.100 37.873 C 76.952 38.216,76.752 39.078,76.656 39.790 C 76.561 40.501,76.301 41.646,76.079 42.333 C 75.857 43.021,75.519 44.071,75.327 44.667 C 75.136 45.262,74.847 46.313,74.687 47.000 C 74.526 47.688,74.277 48.475,74.133 48.750 C 73.989 49.025,73.781 49.700,73.670 50.250 C 73.559 50.800,73.328 51.572,73.157 51.966 C 72.985 52.360,72.762 53.143,72.659 53.707 C 72.557 54.271,72.329 55.016,72.152 55.362 C 71.975 55.709,71.718 56.524,71.582 57.174 C 71.445 57.824,71.256 58.501,71.161 58.678 C 71.066 58.856,70.809 59.769,70.590 60.709 C 70.372 61.648,70.073 62.904,69.926 63.500 C 69.053 67.044,68.553 66.736,75.291 66.801 C 78.196 66.828,80.739 66.809,80.943 66.758 C 81.521 66.613,82.328 64.809,82.522 63.227 C 82.610 62.506,82.833 61.624,83.018 61.267 C 83.203 60.910,83.429 60.197,83.522 59.684 C 83.614 59.170,83.910 58.104,84.178 57.314 C 84.447 56.524,84.668 55.736,84.670 55.564 C 84.672 55.391,84.825 54.917,85.010 54.510 C 85.195 54.103,85.488 53.165,85.662 52.426 C 85.836 51.688,86.136 50.596,86.329 50.000 C 86.522 49.404,86.864 48.354,87.088 47.667 C 87.312 46.979,87.582 46.006,87.686 45.505 C 87.791 45.003,88.015 44.271,88.183 43.877 C 88.352 43.484,88.567 42.551,88.661 41.804 C 88.754 41.057,88.946 40.270,89.086 40.056 C 89.226 39.842,89.460 39.086,89.606 38.375 C 89.753 37.665,90.007 36.818,90.171 36.495 C 90.335 36.171,90.546 35.496,90.639 34.995 C 90.732 34.493,90.889 33.872,90.987 33.614 C 91.577 32.072,91.298 31.997,85.050 32.015 C 82.227 32.023,79.684 32.098,79.399 32.180 M311.876 32.183 C 311.206 32.380,310.763 33.185,310.416 34.836 C 310.280 35.483,310.055 36.232,309.917 36.500 C 309.778 36.768,309.549 37.496,309.407 38.118 C 309.265 38.741,309.013 39.625,308.846 40.083 C 308.679 40.542,308.491 41.411,308.427 42.015 C 308.364 42.618,308.135 43.496,307.918 43.965 C 307.701 44.434,307.472 45.177,307.409 45.617 C 307.347 46.057,307.120 46.867,306.906 47.417 C 306.691 47.967,306.435 48.781,306.337 49.225 C 306.238 49.670,306.043 50.257,305.902 50.529 C 305.761 50.800,305.539 51.582,305.408 52.266 C 305.278 52.950,305.057 53.728,304.919 53.995 C 304.781 54.263,304.522 55.067,304.344 55.782 C 304.166 56.498,303.868 57.496,303.682 58.000 C 303.496 58.504,303.342 59.088,303.339 59.297 C 303.336 59.506,303.139 60.137,302.902 60.700 C 302.664 61.267,302.411 62.288,302.337 62.987 C 302.263 63.682,302.047 64.591,301.858 65.008 C 301.085 66.711,301.216 66.750,307.667 66.750 C 314.474 66.750,314.133 66.864,314.423 64.500 C 314.485 63.996,314.675 63.246,314.847 62.833 C 315.018 62.421,315.235 61.732,315.328 61.302 C 315.421 60.872,315.642 60.151,315.820 59.700 C 315.998 59.249,316.230 58.403,316.335 57.822 C 316.441 57.240,316.637 56.552,316.771 56.293 C 316.904 56.035,317.166 55.211,317.352 54.463 C 317.539 53.715,317.803 52.886,317.940 52.621 C 318.077 52.356,318.263 51.686,318.352 51.133 C 318.441 50.579,318.661 49.837,318.842 49.484 C 319.022 49.130,319.279 48.333,319.412 47.712 C 319.546 47.091,319.798 46.208,319.973 45.750 C 320.148 45.292,320.341 44.542,320.401 44.083 C 320.462 43.625,320.690 42.650,320.909 41.917 C 321.474 40.026,321.978 38.267,322.337 36.935 C 322.507 36.303,322.791 35.440,322.968 35.018 C 323.419 33.945,323.546 32.793,323.257 32.398 C 322.996 32.041,312.999 31.851,311.876 32.183 M389.173 33.031 C 389.802 33.496,389.794 33.769,389.134 34.450 C 388.518 35.085,388.057 35.141,387.439 34.655 C 386.079 33.585,387.775 31.997,389.173 33.031 M212.467 50.367 C 212.784 50.684,212.697 51.677,212.274 52.586 C 212.060 53.045,211.792 53.705,211.677 54.052 C 211.383 54.943,208.717 57.595,207.368 58.339 C 205.104 59.587,203.235 60.496,202.933 60.498 C 202.758 60.499,202.222 60.686,201.740 60.914 C 201.065 61.233,200.394 61.369,198.808 61.506 C 197.676 61.603,196.150 61.811,195.417 61.966 C 193.453 62.384,184.976 62.380,183.167 61.960 C 182.479 61.801,181.316 61.605,180.583 61.525 C 177.067 61.142,174.784 58.482,176.078 56.275 C 177.025 54.658,180.486 52.571,182.750 52.252 C 183.208 52.187,183.958 51.988,184.416 51.810 C 184.875 51.632,186.225 51.376,187.417 51.241 C 188.608 51.105,190.219 50.876,190.996 50.730 C 193.702 50.224,212.014 49.914,212.467 50.367 " stroke="none" fill="#fefdfe" fill-rule="evenodd"></path></g></svg>