<?xml version="1.0" standalone="no"?>
<!DOCTYPE svg PUBLIC "-//W3C//DTD SVG 20010904//EN"
 "http://www.w3.org/TR/2001/REC-SVG-20010904/DTD/svg10.dtd">
<svg version="1.0" xmlns="http://www.w3.org/2000/svg"
 width="260.000000pt" height="260.000000pt" viewBox="0 0 260.000000 260.000000"
 preserveAspectRatio="xMidYMid meet">
<metadata>
Created by potrace 1.11, written by Peter Selinger 2001-2013
</metadata>
<g transform="translate(0.000000,260.000000) scale(0.100000,-0.100000)"
fill="#000000" stroke="none">
<path d="M0 1300 l0 -1300 1300 0 1300 0 0 1300 0 1300 -1300 0 -1300 0 0
-1300z m1858 877 c3 -37 -1 -43 -90 -128 -70 -67 -102 -90 -128 -95 -19 -3
-55 -12 -79 -20 -25 -8 -48 -14 -53 -14 -14 0 -9 32 7 50 15 16 7 18 -122 23
-112 4 -160 11 -255 36 -138 37 -186 39 -216 11 -12 -12 -22 -26 -22 -32 0 -6
20 -29 45 -51 41 -37 45 -45 45 -87 0 -60 -25 -85 -81 -84 -79 2 -119 59 -119
166 0 119 67 209 183 243 67 20 110 19 285 -7 86 -12 201 -22 277 -22 122 -1
133 1 185 26 36 18 69 26 95 25 39 -2 40 -3 43 -40z m-22 -257 c157 -28 164
-30 164 -53 0 -12 -7 -43 -15 -70 -8 -26 -23 -109 -35 -184 -11 -76 -23 -139
-25 -141 -2 -2 -19 -5 -37 -5 l-33 -2 0 125 c-1 140 -10 170 -68 214 -51 39
-139 37 -217 -5 -102 -54 -170 -150 -170 -238 0 -70 37 -132 153 -255 61 -66
97 -112 97 -126 0 -12 -12 -36 -26 -53 -23 -28 -25 -36 -19 -82 4 -27 7 -68 8
-90 2 -34 -1 -40 -20 -43 -17 -2 -26 3 -32 20 -14 36 -90 128 -106 128 -8 0
-19 9 -25 20 -6 11 -17 20 -25 20 -8 0 -15 6 -15 14 0 7 -20 32 -45 55 -25 23
-45 46 -45 51 0 6 -4 10 -8 10 -14 0 -72 135 -84 194 -14 71 2 159 44 238 37
70 145 176 216 212 101 51 238 68 368 46z m-650 -357 c-3 -16 -8 -49 -12 -75
-5 -41 -14 -54 -62 -100 -31 -29 -99 -100 -150 -158 -52 -58 -104 -114 -115
-125 -12 -11 -49 -51 -82 -89 -57 -66 -59 -69 -30 -62 161 41 340 51 465 27
35 -7 129 -33 208 -58 122 -39 149 -45 180 -37 55 14 69 49 48 124 -11 40 -14
65 -7 81 24 61 98 78 148 35 26 -23 28 -29 28 -98 -1 -83 -13 -113 -72 -172
-85 -86 -160 -97 -443 -68 -107 11 -249 23 -315 27 -143 7 -371 -9 -424 -31
-51 -20 -115 -15 -119 9 -9 44 18 79 202 266 107 108 267 271 356 364 164 168
208 199 196 140z m-29 -389 c-3 -3 -12 -4 -19 -1 -8 3 -5 6 6 6 11 1 17 -2 13
-5z m629 -371 c-16 -124 -131 -267 -272 -340 -128 -67 -214 -86 -358 -81 -109
4 -128 8 -189 36 -78 36 -159 113 -177 168 -7 20 -10 59 -7 87 6 65 47 107
105 107 66 0 83 -21 116 -142 29 -103 100 -157 207 -158 136 0 289 97 351 224
17 35 29 46 67 60 25 9 66 32 91 51 64 48 74 46 66 -12z"/>
</g>
</svg>
