<svg version="1" xmlns="http://www.w3.org/2000/svg" width="933.333" height="933.333" viewBox="0 0 700.000000 700.000000"><path d="M156.3 85.7c-1.3.2-2.3.9-2.3 1.5s1.9 4.3 4.1 8.2c2.3 3.9 5.8 10.2 7.9 14.1 2 3.8 7.8 14.1 12.8 22.7 5.1 8.6 9.2 16 9.2 16.4 0 .4.6 1.5 1.3 2.3.8.9 3.4 5.4 5.9 10.1 5.8 10.9 11.9 21.5 17.6 31 2.5 4.1 6.5 11.3 8.9 15.8 2.4 4.6 5.5 10.1 6.8 12.3 1.4 2.1 2.5 4.3 2.5 4.8s.3 1.1.8 1.3c.4.1 1.5 2 2.6 4 1 2 2.8 4.7 3.9 5.8 1.9 2.1 2 2.1 3.7.3 1-1 3.9-5.9 6.5-10.8 2.6-5 5-9.5 5.5-10 .4-.6 1.9-3 3.2-5.5 2.9-5.2 13-22.9 19.4-34.1 2.4-4.2 4.4-7.9 4.4-8.3 0-.3 1.1-2.5 2.6-4.7 2.5-4 3.7-6.1 9.8-16.8 6-10.3 7.8-13.7 11.5-20.6 2.1-3.9 4.8-8.8 6.1-11 1.2-2.2 3.4-6 4.8-8.5 1.3-2.5 2.8-5 3.2-5.5.5-.6 2.4-3.8 4.4-7.3l3.5-6.3-2.2-.9c-2.2-.8-164.1-1.2-168.4-.3zM373.8 85.6c-.9.9 0 3 4.8 10.9 5.3 8.9 8.3 14.2 10.2 18 .8 1.6 2 3.7 2.7 4.5.7.8 3.5 5.8 6.2 11 2.8 5.2 6.8 12.4 8.8 16 2.1 3.6 4.6 8.1 5.7 10 1.1 1.9 2.4 3.9 2.8 4.5.8 1.1 4.5 7.6 9.8 17.5 2 3.6 6.2 11.2 9.5 17 3.3 5.8 7.1 12.5 8.5 15 1.3 2.5 2.8 4.9 3.2 5.5 1 1.3 4.5 7.5 8.2 14.5 4.2 7.9 5.2 8.7 7.5 6.1 2.1-2.5 17.7-29 19.8-33.8.8-1.7 2.9-5.5 4.6-8.5 1.8-2.9 5.8-9.8 8.9-15.3 3.1-5.5 6.7-11.8 8-14 1.3-2.2 4.1-7.4 6.3-11.5 6.1-11.2 7.5-13.7 16-27.9 4.2-7.1 7.7-13.2 7.7-13.5 0-.2 1.9-3.7 4.3-7.8 7.3-12.3 9.2-16.9 7.6-17.9-1.6-.9-170.2-1.3-171.1-.3zM124.7 99.2c-1.9 2.9-4.6 7.3-6.1 9.8-1.5 2.5-3.1 5.2-3.6 6-2.4 3.8-10 17.1-10 17.5 0 .3-1.2 2.4-2.7 4.8-3.6 5.6-4.8 7.5-7.1 11.7-1 1.9-5.2 9.1-9.4 16-4.1 6.9-9 15.4-10.8 19-1.9 3.6-4.4 7.8-5.6 9.5-1.2 1.6-3.8 5.9-5.8 9.5-4.1 7.2-5.3 9.3-7.7 13-4 6.1-12.9 23-12.9 24.4 0 1.5 8.1 1.6 85.8 1.4l85.7-.3-.3-2.5c-.1-1.4-4.4-9.5-9.6-18-5.1-8.5-9.6-16.2-9.9-17-.4-.8-1.7-3.1-2.9-5s-3.1-5.3-4.3-7.5c-1.2-2.2-6.9-11.7-12.5-21-5.7-9.4-11.2-18.7-12.2-20.8-1.6-3.3-7.1-12.8-10.8-18.7-.5-.8-2.6-4.4-4.6-8-2-3.6-5.6-9.4-7.9-13-2.2-3.6-4.4-7.2-4.8-8-1.7-3.6-4.4-7.4-5.5-7.8-.6-.2-2.7 2.1-4.5 5zM347.3 95.2c-2.2 3.3-13.4 22.8-15.5 26.8-1.3 2.5-2.5 4.7-2.8 5-.6.6-9.6 15.5-13.1 21.5-1.2 2.2-3.9 6.9-5.9 10.5-5.7 10.1-9.9 17.2-19.7 33.6-5 8.3-10.1 17.1-11.2 19.5-1.2 2.4-5 9-8.5 14.6-8.5 13.5-8.6 13.9-3.9 14.6 5.2.7 168 .3 168.7-.4.6-.5-1.1-4.1-6.4-13.4-1.2-2.2-2.6-4.2-3-4.5-.4-.3-2.4-3.7-4.4-7.5-3.8-7.4-6.3-11.7-13.8-24.2-2.7-4.3-5.6-9.2-6.5-10.8-1-1.7-3.7-6.3-6-10.2-2.4-4-4.3-7.5-4.3-7.8 0-.3-2.2-4.1-5-8.5-2.7-4.4-5-8.2-5-8.6 0-.3-1.9-3.6-4.3-7.2-2.4-3.7-6-9.9-8.1-13.7-2.1-3.9-5.9-10.5-8.5-14.8-2.5-4.3-5.6-9.5-6.7-11.5-2.3-3.9-4.7-5.1-6.1-3zM567.9 97.7c-1.2 2.1-3 5-3.8 6.4-.9 1.4-4.2 7-7.5 12.5-3.2 5.4-6.6 11-7.5 12.4-.9 1.4-3.2 5.4-5 9-1.9 3.6-3.9 7.1-4.4 7.8-.6.8-3.2 5-5.7 9.5-2.6 4.5-7.2 12.2-10.2 17.2-3 4.9-6.8 11.5-8.4 14.5-1.5 3-4.5 8.1-6.6 11.3-2.1 3.2-3.8 6.1-3.8 6.4 0 .2-3.7 6.6-8.3 14.1-9.5 15.7-12.1 20.8-11.2 22.2.4.7 30.9 1 86.2 1h85.6l-.6-2.9c-.5-2.4-5.6-11.6-14.8-26.6-1.1-1.7-2.4-4.1-3.1-5.5-.7-1.4-3.3-5.7-5.7-9.5-2.5-3.9-5.7-9.5-7.3-12.5-1.5-3-3.2-6.2-3.8-7-2.1-3.2-16.6-27.6-17.8-30-.7-1.4-2-3.9-3-5.5-1-1.7-3.4-5.7-5.2-9-1.8-3.2-4.7-8.2-6.5-11-1.7-2.7-3.5-5.7-3.8-6.5-1.7-3.8-13.3-21.4-14.3-21.7-.6-.2-2.2 1.3-3.5 3.4zM51.3 261.8c-7.4.3-7.7 1-3 7.5 3.2 4.5 19.8 25.3 30.5 38.1 3.1 3.9 12.4 15.3 20.5 25.5s18.6 23.1 23.2 28.6c4.6 5.5 10.7 13.1 13.6 17 2.9 3.8 8.5 10.8 12.4 15.5 7.9 9.5 31.8 39.1 41 50.9 3.3 4.2 8.3 10.4 11 13.7 2.8 3.3 6.6 8 8.5 10.4 1.9 2.4 4.9 6 6.5 7.9 4.7 5.6 5.2 6.2 11.7 14.6 3.4 4.4 9.8 12.4 14.3 17.7 4.4 5.3 11 13.6 14.7 18.5 3.7 4.8 8.2 10.4 9.9 12.3 1.7 1.9 5.1 6 7.5 9 28.1 35.3 62.7 78.1 63.6 78.6 2.7 1.7 2.8-1.8.3-10.2-3.5-12.1-15.7-50-21.2-65.9-2.5-7.2-4.9-14.6-5.4-16.5-.6-1.9-1.4-4.4-1.9-5.5-.5-1.1-1.7-4.9-2.6-8.5-.9-3.6-4.3-14.4-7.6-24-3.2-9.6-6.4-19.3-6.9-21.5-.6-2.2-2.8-9.2-5-15.5-5.9-16.8-8.6-25-9.4-29-.4-1.9-6.9-22.2-14.5-45s-14.7-45.1-15.9-49.5c-1.2-4.4-2.5-8.9-3-10-1.4-3.1-7.2-20.4-8.7-26-4.3-15.2-12.3-36.9-14-37.8-1.3-.8-27.1-1.1-82.9-1.2-44.5 0-83.8.1-87.2.3zM479.6 261.9c-.2.3-.7 2.2-1.1 4.1-.4 1.9-2.2 8.2-4 14-3.3 10.4-8.7 28-12.7 41.5-1.1 3.8-2.7 9-3.5 11.5-.8 2.4-2 6.9-2.8 10-1.4 6.1-5.5 20.1-8.5 29.5-1.8 5.8-3.9 12.5-7.6 25-.9 3.3-2.5 8.5-3.5 11.5-3.6 11.4-7 22.8-8.9 30.5-1.1 4.4-2.5 9.5-3.1 11.5-.7 1.9-2 6-2.9 9-1 3-2.7 8.6-3.8 12.5-2 7.1-6.4 21.5-12.3 40.5-1.8 5.8-3.6 11.8-4 13.5-1.6 6-5.8 21.2-7.9 28-1.2 3.8-2.5 8.8-3.1 11-.5 2.2-1.3 4.9-1.8 6-.5 1.1-2.1 6-3.6 11-2.8 9.5-8.5 28.5-11.2 37.1-1.6 5-1.3 8.4.6 8.4 1.1 0 8.2-8.5 18.7-22.6 3.8-5.1 11.6-15.2 17.3-22.5 34.5-44.1 51.7-66.3 68.6-88.4 6.3-8.3 14.1-18.2 17.2-22.2 3.2-3.9 15.1-19.2 26.5-34 11.4-14.7 23.9-30.9 27.8-35.8 3.8-5 9.8-12.7 13.3-17.3 3.4-4.6 11.8-15.4 18.7-24.1 6.9-8.6 13.4-17 14.4-18.6 1.1-1.7 5.6-7.5 10-13 9.1-11.5 14.7-18.6 19.3-24.7 1.8-2.4 6.9-9 11.5-14.8 16.9-21.5 18.6-23.7 19.2-25.8.9-2.6 12.5-2.3-98.2-2.7-43-.1-78.4.1-78.6.4zM252 264c0 1.9 3 13.2 8.5 31.5 1.5 4.9 3.1 10.3 3.6 12 .4 1.6 1.7 6.1 2.9 10 1.1 3.8 2.7 9.2 3.5 12 3.4 12.7 10.2 36.7 15.2 54 3 10.4 6.3 21.9 7.3 25.5 1 3.6 2.6 9 3.5 12 .9 3 2.3 8 3.1 11 2 7.7 4.5 16.1 5.5 18.5.5 1.1 1.3 4 1.9 6.5.5 2.5 2.4 9.4 4 15.5 1.7 6 3.7 13.2 4.5 16 1.8 6.6 4.9 17.4 7.5 26 1.2 3.8 2.5 8.8 3.1 11 .5 2.2 1.3 4.9 1.8 6 .5 1.1 2.1 6.5 3.6 12s3.1 11 3.6 12.2c.4 1.2 1.8 6.2 2.9 11 2.1 8.7 2.6 10.6 7.1 25.3 1.2 4.1 3 10.4 4 14 5.5 20.4 6.1 22 8 22 2.1 0 3.5-4 7.4-21.8 1.4-6.4 3-13.5 3.6-15.7 1.2-4 2.7-10.4 5.4-22 .7-3.3 3.2-13.2 5.5-22s4.8-18.5 5.5-21.5c3.6-14.5 4.5-18 5.9-24.5.9-3.9 1.9-7.7 2.2-8.5.3-.8 1-3.8 1.5-6.5 1.1-6.1 2.7-12.8 7.4-31 2-7.7 4.3-16.9 5-20.5.8-3.6 2.4-10.1 3.5-14.5 1.2-4.4 4.6-18.1 7.6-30.5 3-12.4 7.3-29.9 9.5-39 2.3-9.1 5-20.1 6.1-24.5 1-4.4 2.6-10.5 3.3-13.5.8-3 2.3-9.3 3.4-14 1.1-4.7 3.4-13.8 5.1-20.2 1.6-6.4 3-12.6 3-13.7V262h-98c-97.2 0-98 0-98 2z"/></svg>